<?xml version="1.0" encoding="UTF-8"?>
<svg version="1.1" xmlns="http://www.w3.org/2000/svg" width="1024" height="1024">
<path d="M0 0 C337.92 0 675.84 0 1024 0 C1024 337.92 1024 675.84 1024 1024 C686.08 1024 348.16 1024 0 1024 C0 686.08 0 348.16 0 0 Z " fill="#FDFDFD" transform="translate(0,0)"/>
<path d="M0 0 C1.84086266 -0.00330345 3.6817246 -0.00703003 5.52258563 -0.01114148 C10.56542479 -0.02111482 15.60825206 -0.02487071 20.65109968 -0.02753079 C26.09652679 -0.03144773 31.54194459 -0.04102502 36.98736572 -0.04974365 C50.12987637 -0.06946835 63.27238774 -0.07956895 76.41490948 -0.08847144 C82.61238919 -0.09286067 88.80986806 -0.09822581 95.00734711 -0.10346031 C115.62321927 -0.12046818 136.23909092 -0.13496099 156.85496902 -0.14220905 C162.1999232 -0.14411877 167.54487738 -0.14603746 172.88983154 -0.147995 C173.88580749 -0.14835522 173.88580749 -0.14835522 174.90190416 -0.14872272 C196.4101356 -0.1566085 217.91831177 -0.18002747 239.4265191 -0.21255094 C262.20023938 -0.24692475 284.97392887 -0.26656607 307.74767566 -0.26985329 C320.14831929 -0.27201351 332.54888167 -0.28069061 344.94950104 -0.30631447 C355.51297814 -0.32809254 366.07635423 -0.33603703 376.63985124 -0.32634769 C382.02183339 -0.32182362 387.40360743 -0.32357822 392.78556061 -0.34310913 C442.34807474 -0.51306736 442.34807474 -0.51306736 463.93768311 8.14717102 C465.55416748 8.75818665 465.55416748 8.75818665 467.20330811 9.38154602 C480.85902709 14.83158633 492.74133776 22.37363835 503.28924561 32.60420227 C505.93020746 35.21243174 505.93020746 35.21243174 508.96893311 37.59638977 C523.95766136 50.47486286 533.56016253 70.8343964 539.25018311 89.33467102 C539.50493408 90.15395081 539.75968506 90.97323059 540.02215576 91.81733704 C540.2585376 92.62098694 540.49491943 93.42463684 540.73846436 94.25263977 C540.94640625 94.95542053 541.15434814 95.65820129 541.36859131 96.38227844 C543.44630339 106.47669688 543.08136118 116.82026957 543.07139587 127.07350159 C543.07326585 128.89944148 543.0755673 130.72538097 543.0782612 132.55131984 C543.08436245 137.55259953 543.08424758 142.55386246 543.08306682 147.55514503 C543.08286239 152.95542644 543.08838558 158.35570253 543.09312439 163.75598145 C543.1014222 174.32985634 543.10417883 184.90372565 543.10473677 195.47760352 C543.10521232 204.07421421 543.10726901 212.67082306 543.11043739 221.26743317 C543.11924141 245.65195841 543.12385714 270.03647926 543.12310692 294.42100611 C543.12304698 296.39186643 543.12304698 296.39186643 543.12298584 298.40254211 C543.12292452 300.37581459 543.12292452 300.37581459 543.12286196 302.38895115 C543.12245551 323.70870421 543.13202551 345.02843428 543.14612421 366.34818271 C543.16049362 388.2504685 543.16739409 410.15274568 543.16653043 432.05503631 C543.16619867 444.34696813 543.16893671 456.63888144 543.17970848 468.93080902 C543.18882087 479.39604798 543.19098262 489.86126001 543.18419906 500.32650122 C543.18093767 505.66287613 543.18086343 510.99919941 543.18955231 516.33556938 C543.19743497 521.22721908 543.19596786 526.11877637 543.18726818 531.01042387 C543.18573708 532.77348527 543.1875345 534.53655363 543.19312825 536.29960683 C543.29511552 570.74452888 531.92280905 599.64265439 508.93768311 625.14717102 C508.30604248 625.86260071 507.67440186 626.5780304 507.02362061 627.31513977 C487.62660368 648.03662261 457.38506792 662.52605918 428.92366367 663.60367444 C424.71836715 663.68632908 420.51607548 663.67755959 416.31022644 663.65510559 C414.39701985 663.65972631 412.48381682 663.66608701 410.57062107 663.67401457 C405.36508243 663.6905701 400.15984059 663.68252486 394.95430148 663.67006969 C389.32027369 663.66096465 383.68629452 663.67501577 378.05227661 663.68598938 C367.03595694 663.70372092 356.01974664 663.69995868 345.00342279 663.68833882 C336.04613226 663.67928405 327.08887225 663.67808932 318.13157845 663.68243408 C316.21511073 663.68335348 316.21511073 663.68335348 314.25992649 663.68429145 C311.66396052 663.68557043 309.06799457 663.68686728 306.47202862 663.68818182 C282.85583391 663.69924747 259.23970942 663.6877967 235.62352607 663.66681143 C214.09776078 663.64782909 192.57209016 663.64953191 171.04632568 663.6686554 C146.81999181 663.69010652 122.59372488 663.69847555 98.36737972 663.68620634 C95.78157716 663.68493222 93.19577458 663.68367473 90.609972 663.68243408 C89.33789083 663.68181698 88.06580966 663.68119988 86.75518058 663.68056408 C77.81365129 663.67711803 68.87215571 663.68292339 59.93063164 663.69235229 C49.02683023 663.70359833 38.12314394 663.70047742 27.21935564 663.67922932 C21.66175382 663.66875433 16.10434357 663.66453635 10.54674339 663.67782593 C5.44975707 663.68982929 0.35313815 663.68305746 -4.7438153 663.66191572 C-6.57801885 663.65748313 -8.41225406 663.65963967 -10.2464369 663.66941887 C-44.42789694 663.83754455 -74.4212731 649.36945098 -98.64385986 625.58418274 C-112.65003354 611.39479578 -121.81380351 593.91943672 -128.31231689 575.20967102 C-128.55876953 574.51897522 -128.80522217 573.82827942 -129.05914307 573.11665344 C-133.3329013 560.27765145 -133.35576849 547.01772159 -133.32974243 533.65284729 C-133.33348584 531.81393014 -133.33809009 529.97501457 -133.34347308 528.13610148 C-133.35563289 523.11736302 -133.35545096 518.09869156 -133.35308433 513.07994175 C-133.35267438 507.65374299 -133.3637321 502.2275652 -133.37319946 496.80137634 C-133.38977117 486.18392536 -133.39530725 475.5664966 -133.39642422 464.94903377 C-133.39737638 456.31488863 -133.40149506 447.6807508 -133.40782547 439.04660797 C-133.42542636 414.53996261 -133.43466598 390.03333473 -133.43316452 365.526683 C-133.43308461 364.20712764 -133.4330047 362.88757228 -133.43292236 361.5280304 C-133.43287963 360.86764463 -133.43283689 360.20725886 -133.43279286 359.5268614 C-133.43148897 337.44881251 -133.45012391 315.37084062 -133.4791991 293.29281226 C-133.50795609 271.28189558 -133.52173788 249.27101318 -133.52001154 227.26007724 C-133.51934868 214.91328123 -133.52479559 202.56655901 -133.54636765 190.21977997 C-133.56461634 179.70824862 -133.56889638 169.19682453 -133.5553488 158.68528417 C-133.5488382 153.32807692 -133.54863288 147.97107523 -133.5660553 142.61388779 C-133.5818753 137.69865604 -133.57883201 132.78379131 -133.56148703 127.86856803 C-133.55843672 126.1015161 -133.56197416 124.33443615 -133.57320718 122.56741729 C-133.72332446 97.25304565 -126.22667196 71.11490375 -110.06231689 51.14717102 C-109.07231689 50.65217102 -109.07231689 50.65217102 -108.06231689 50.14717102 C-107.50157471 49.11849915 -106.94083252 48.08982727 -106.36309814 47.02998352 C-103.96300304 42.68251582 -100.788044 39.46579312 -97.24981689 36.02217102 C-96.65878174 35.42791321 -96.06774658 34.8336554 -95.45880127 34.22138977 C-90.92350766 29.7404999 -86.20464484 25.19461367 -80.06231689 23.14717102 C-79.44356689 22.50779602 -78.82481689 21.86842102 -78.18731689 21.20967102 C-75.88365469 18.97376359 -74.02171349 18.28540048 -71.06231689 17.14717102 C-70.4416333 16.4723468 -70.4416333 16.4723468 -69.80841064 15.78388977 C-67.37647878 13.50429369 -64.71365654 12.40029823 -61.68731689 11.02217102 C-60.56583252 10.5039679 -59.44434814 9.98576477 -58.28887939 9.45185852 C-55.06231689 8.14717102 -55.06231689 8.14717102 -52.58575439 7.65498352 C-49.85769183 7.19809371 -49.85769183 7.19809371 -46.70684814 5.68623352 C-43.03181696 4.13429109 -39.6609089 3.27382756 -35.74981689 2.52217102 C-34.53680908 2.2824054 -33.32380127 2.04263977 -32.07403564 1.79560852 C-21.41334642 -0.01759304 -10.77971798 -0.00175623 0 0 Z " fill="#3D7EE9" transform="translate(308.06231689453125,175.8528289794922)"/>
<path d="M0 0 C3.10975588 2.71006938 5.00415633 6.10760594 7.0625 9.625 C7.45824219 10.29249268 7.85398437 10.95998535 8.26171875 11.64770508 C10.25796516 15.01990199 12.23618078 18.40262264 14.21484375 21.78515625 C21.57781483 34.36463227 29.14763937 46.81594195 36.72705078 59.265625 C40.48897994 65.44531561 44.24484964 71.62868853 48 77.8125 C48.36221649 78.40895325 48.72443298 79.00540649 49.09762573 79.61993408 C53.62434259 87.07493822 58.14792799 94.53146955 62.61328125 102.0234375 C64.62874206 105.39736064 66.67933307 108.74922334 68.73046875 112.1015625 C70.09116435 114.3385304 71.45184132 116.57550964 72.8125 118.8125 C73.78340576 120.38874146 73.78340576 120.38874146 74.77392578 121.99682617 C83.90198557 137.05181071 88.20570186 152.7888161 84.12890625 170.37890625 C80.59649402 183.1035489 74.56566633 194.95680614 66 205 C65.39285156 205.80566406 64.78570313 206.61132812 64.16015625 207.44140625 C51.50378581 222.43222476 31.10302323 230.29587561 12 232 C8.58927184 232.12644907 5.18365314 232.11666328 1.77096558 232.09765625 C0.76693164 232.09624413 -0.2371023 232.09483202 -1.2715615 232.09337711 C-4.62263697 232.08767931 -7.97365053 232.07498356 -11.32470703 232.0625 C-13.73350922 232.05734405 -16.14231267 232.05275546 -18.55111694 232.0486908 C-23.06404463 232.04080864 -27.5769644 232.03163446 -32.08988558 232.0206396 C-40.97529055 231.99943864 -49.86063624 231.99556202 -58.74606323 231.99829102 C-59.43886545 231.99847343 -60.13166766 231.99865585 -60.84546389 231.99884379 C-66.54945595 232.00037436 -72.25344774 232.00254298 -77.95743957 232.00474477 C-83.08897663 232.0066534 -88.22051338 232.00789979 -93.35205078 232.00830078 C-94.0834284 232.0083651 -94.81480602 232.00842942 -95.5683466 232.00849569 C-107.386818 232.00865126 -119.20506274 231.9800422 -131.02346374 231.94156575 C-143.19415178 231.90270003 -155.3645205 231.89851881 -167.53524292 231.92484093 C-174.3537469 231.93855682 -181.17146801 231.93665336 -187.98987198 231.89379883 C-194.41717803 231.85486076 -200.84310556 231.85881596 -207.27042007 231.89392281 C-209.61231043 231.89941098 -211.95429864 231.88991735 -214.2960434 231.86323357 C-229.887705 231.69699421 -241.82048172 234.15168854 -255.81173217 241.19124699 C-258.32917096 242.12165696 -260.33699301 242.14445222 -263 242 C-263 241.34 -263 240.68 -263 240 C-269.51131643 242.10808694 -275.92215029 244.42608782 -282.3125 246.875 C-283.2411084 247.23013672 -284.1697168 247.58527344 -285.12646484 247.95117188 C-291.80352228 250.51594678 -298.42334931 253.18719229 -305 256 C-307.4975001 257.06756508 -309.99573008 258.1333196 -312.49560547 259.1953125 C-314.22523891 259.93020597 -315.95347533 260.66839768 -317.68017578 261.41015625 C-318.4689209 261.7453125 -319.25766602 262.08046875 -320.0703125 262.42578125 C-320.77945801 262.72911377 -321.48860352 263.03244629 -322.21923828 263.3449707 C-324 264 -324 264 -326 264 C-326 264.66 -326 265.32 -326 266 C-327.32 266.33 -328.64 266.66 -330 267 C-327.29589508 257.36662623 -322.54331501 248.31497251 -317 240 C-316.68804687 239.21238281 -316.37609375 238.42476562 -316.0546875 237.61328125 C-314.97104719 234.92826137 -313.65561968 232.64204295 -312.125 230.1875 C-309.82162392 226.42700036 -307.78373589 222.63569909 -305.8671875 218.66796875 C-305 217 -305 217 -303.4375 214.9375 C-301.79232282 212.72008728 -300.84984103 210.38659776 -299.8046875 207.84375 C-298.45616374 204.75392858 -296.72881061 201.88711371 -295 199 C-294.26523437 197.76830078 -294.26523437 197.76830078 -293.515625 196.51171875 C-291.52670601 193.18864866 -289.53453033 189.86808842 -287.50390625 186.5703125 C-285.86544964 183.7700412 -284.42698544 180.9134286 -283 178 C-281.14830041 174.21944668 -279.2061544 170.5850009 -277 167 C-274.5350069 162.98272746 -272.3133273 158.8596527 -270.125 154.6875 C-265.95830815 146.79177019 -265.95830815 146.79177019 -263.5 143.0625 C-260.57444506 138.57533127 -258.32670896 133.72672539 -256.02929688 128.89672852 C-253.76088502 124.21726981 -251.07613857 120.19230691 -248 116 C-248 115.67 -248 115.34 -248 115 C-246.76951447 114.99365209 -246.76951447 114.99365209 -245.51417065 114.98717594 C-225.42611706 114.88324768 -205.33809422 114.77452573 -185.25009441 114.66066074 C-175.53514866 114.6057055 -165.82019927 114.55229162 -156.10522461 114.50268555 C-147.62406145 114.45937539 -139.14292122 114.4129908 -130.66179401 114.36312145 C-126.18348489 114.33689071 -121.7051792 114.31205833 -117.22684288 114.29092598 C-101.00362175 114.21343857 -84.78778332 114.12379499 -68.57324219 113.54370117 C-67.49731654 113.50580003 -66.4213909 113.46789888 -65.31286144 113.42884922 C-57.90723947 113.12860631 -50.80147877 112.41213352 -43.5625 110.75 C-42.53302246 110.52747559 -41.50354492 110.30495117 -40.44287109 110.07568359 C-23.11570863 106.16736321 -6.40339511 97.59605506 4.25 82.875 C8.08873534 76.70248806 10.45502016 69.77639209 13 63 C13.38027344 62.21238281 13.76054688 61.42476563 14.15234375 60.61328125 C19.75970133 43.32608208 11.62217058 24.24794844 4 9 C3.25946322 7.68787619 2.50878878 6.38140029 1.74609375 5.08203125 C0 2 0 2 0 0 Z " fill="#F7C44C" transform="translate(677,448)"/>
<path d="M0 0 C4.91941539 4.59145437 6.73934798 9.04190271 7.3359375 15.8125 C7.89356095 40.94153085 -5.21746274 63.69008137 -22.13037109 81.64770508 C-32.09767831 91.85579995 -43.41734374 100.14882824 -55.68359375 107.39453125 C-67.81210098 114.59719887 -75.50387815 120.49223864 -82 133 C-83.12297021 135.05781133 -84.24957159 137.11364337 -85.37890625 139.16796875 C-87.84257093 143.67788404 -90.27241475 148.20377052 -92.67578125 152.74609375 C-95.30086085 157.70342424 -97.98080097 162.62189147 -100.75 167.5 C-101.2773877 168.4295752 -101.2773877 168.4295752 -101.81542969 169.37792969 C-102.51730253 170.61481013 -103.2192876 171.8516269 -103.92138672 173.08837891 C-105.907754 176.60880802 -107.85647805 180.15015236 -109.8125 183.6875 C-113.41829061 190.20250006 -117.09920017 196.67077267 -120.8125 203.125 C-126.86247134 213.65906775 -132.64007988 224.33282016 -138.39746094 235.02880859 C-140.95857412 239.77724666 -143.54064268 244.51418307 -146.125 249.25 C-146.61073486 250.14106445 -147.09646973 251.03212891 -147.59692383 251.95019531 C-150.10462068 256.54589431 -152.62440478 261.13455967 -155.16015625 265.71484375 C-155.92271729 267.09397949 -155.92271729 267.09397949 -156.70068359 268.50097656 C-157.66880593 270.25027348 -158.63907508 271.99838456 -159.61181641 273.74511719 C-160.25836182 274.91349121 -160.25836182 274.91349121 -160.91796875 276.10546875 C-161.29719482 276.78762451 -161.6764209 277.46978027 -162.06713867 278.17260742 C-163.13149687 280.14501191 -163.13149687 280.14501191 -164 283 C-186.99384184 283.83277496 -205.71847005 278.70279312 -223 263 C-223.90363281 262.18917969 -224.80726563 261.37835937 -225.73828125 260.54296875 C-236.80030415 250.09295265 -243.69743199 238.5595828 -248 224 C-248.19851563 223.36835937 -248.39703125 222.73671875 -248.6015625 222.0859375 C-252.5830748 201.24154956 -243.07811627 184.60503558 -232.90917969 167.29833984 C-229.79625232 161.92037965 -226.82656964 156.46491141 -223.8458252 151.01293945 C-199.32330208 106.20900058 -199.32330208 106.20900058 -182 92 C-181.4858252 91.57348145 -180.97165039 91.14696289 -180.44189453 90.70751953 C-170.99822182 82.89456338 -161.21124592 75.7724973 -151 69 C-150.42991211 68.61779297 -149.85982422 68.23558594 -149.27246094 67.84179688 C-134.35351577 57.86062648 -118.64897321 48.99281684 -102.48242188 41.20214844 C-99.49659644 39.7562196 -96.5223209 38.28747969 -93.546875 36.8203125 C-67.89654268 24.23240622 -41.66609412 13.24482289 -15 3 C-14.19522217 2.68571045 -13.39044434 2.3714209 -12.5612793 2.04760742 C-8.12421188 0.33540344 -4.77787421 -0.81133713 0 0 Z " fill="#F3F5FB" transform="translate(507,435)"/>
<path d="M0 0 C0.99 0.66 1.98 1.32 3 2 C4.134375 2.268125 5.26875 2.53625 6.4375 2.8125 C23.45999631 6.87291196 35.83519483 16.41351545 44.97265625 31.16015625 C46.345199 33.45610648 47.70759542 35.75627944 49.0625 38.0625 C50.17651539 39.9331566 51.29416485 41.80160816 52.41215515 43.66989136 C53.16880445 44.93451775 53.9244299 46.1997573 54.67903137 47.46560669 C58.30091859 53.53334854 62.04569563 59.52128738 65.8125 65.5 C70.3531228 72.72366411 74.82184128 79.98174488 79.1875 87.3125 C83.42386099 94.42476174 87.77601221 101.45032008 92.21948242 108.43481445 C96.54678883 115.24901444 100.77942728 122.11928107 105 129 C110.12068123 137.34689135 115.2907511 145.6572602 120.54492188 153.9206543 C125.22538773 161.30611654 129.7613304 168.77819679 134.28173828 176.26245117 C137.67417201 181.88486451 137.67417201 181.88486451 141.28515625 187.3671875 C142.89090684 189.83250844 143.94525896 192.05525877 144.9375 194.8125 C146.1943676 198.1136114 147.56213221 201.09583113 149.375 204.125 C151.79268564 208.32216234 153.54442035 212.66704567 155.25 217.1875 C155.5082959 217.86506348 155.7665918 218.54262695 156.03271484 219.24072266 C159.8864609 229.7030912 161.60661367 244.82342064 157.3125 255.4375 C156.5521163 256.96358476 155.78082848 258.48427412 155 260 C154.2235795 262.01869329 153.45303794 264.03965471 152.6875 266.0625 C146.79835439 280.01799052 134.00424159 291.72780154 120.18115234 297.79882812 C116.19058264 299.41901364 112.17026856 300.91062372 108 302 C107.34 301.67 106.68 301.34 106 301 C106 299.02 106 297.04 106 295 C105.34 295 104.68 295 104 295 C103.87625 294.360625 103.7525 293.72125 103.625 293.0625 C103.315625 292.0415625 103.315625 292.0415625 103 291 C102.34 290.67 101.68 290.34 101 290 C93.92959573 280.72290905 88.16799814 270.21578293 82.61962891 259.97558594 C79.85463157 254.8957265 77.01788452 249.85612931 74.1875 244.8125 C73.26565918 243.16894531 73.26565918 243.16894531 72.32519531 241.4921875 C71.10359992 239.31447728 69.88176511 237.13690134 68.65966797 234.95947266 C67.25078071 232.44718502 65.84498933 229.93322163 64.44140625 227.41796875 C60.83161402 220.95850586 57.15436433 214.54929001 53.375 208.1875 C48.328121 199.68021874 43.54134137 191.03309138 38.75292969 182.37841797 C34.57917814 174.83598798 30.37321794 167.31324014 26.125 159.8125 C25.58858887 158.86528076 25.05217773 157.91806152 24.49951172 156.94213867 C23.47201576 155.12831978 22.44435394 153.31459483 21.41650391 151.50097656 C15.05468928 140.26856894 8.7645941 128.9969727 2.50292969 117.70849609 C-1.14985022 111.12565979 -4.80737312 104.54545473 -8.46459961 97.96508789 C-11.23408683 92.98141228 -14.00306853 87.99749661 -16.76171875 83.0078125 C-21.07914883 75.20322735 -25.44759576 67.43029934 -29.875 59.6875 C-30.3692749 58.82294189 -30.8635498 57.95838379 -31.37280273 57.06762695 C-34.04730186 52.3953613 -36.73327617 47.72996735 -39.4296875 43.0703125 C-39.98543457 42.10649658 -40.54118164 41.14268066 -41.11376953 40.1496582 C-42.18664761 38.28933052 -43.2630262 36.43101628 -44.34326172 34.57495117 C-44.8229541 33.7419751 -45.30264648 32.90899902 -45.796875 32.05078125 C-46.43641113 30.94730347 -46.43641113 30.94730347 -47.08886719 29.8215332 C-48 28 -48 28 -48 26 C-50.16882581 26.85441832 -50.16882581 26.85441832 -51.1875 29.0625 C-52.73413405 31.56911381 -54.21609696 33.4118785 -56.1875 35.5625 C-71.00682903 52.21099307 -81.69572586 73.98763076 -93.19482422 92.97265625 C-96.79784519 98.91962432 -100.5041382 104.78557247 -104.31982422 110.59765625 C-111.15467251 121.01187725 -117.6772036 131.58914787 -124.08764648 142.26782227 C-127.52025009 147.97752839 -131.00480181 153.62706262 -134.74243164 159.14331055 C-135.79410875 160.69601962 -136.81500122 162.26952114 -137.828125 163.84765625 C-138.29734375 164.57855469 -138.7665625 165.30945313 -139.25 166.0625 C-139.72953125 166.81660156 -140.2090625 167.57070313 -140.703125 168.34765625 C-141.13109375 168.89292969 -141.5590625 169.43820312 -142 170 C-142.66 170 -143.32 170 -144 170 C-144.24234375 170.68191406 -144.4846875 171.36382812 -144.734375 172.06640625 C-146.25036058 175.58031111 -148.19740153 178.72181667 -150.25 181.9375 C-150.68328613 182.62352295 -151.11657227 183.3095459 -151.56298828 184.01635742 C-153.03727974 186.34726216 -154.5182086 188.67385657 -156 191 C-157.11725467 192.75776981 -158.23443978 194.51558383 -159.3515625 196.2734375 C-161.72134779 200.00036709 -164.09442243 203.72518175 -166.46875 207.44921875 C-169.27676929 211.85710242 -172.06662688 216.27607739 -174.84936523 220.69995117 C-179.20627119 227.62540275 -183.61092046 234.50098828 -188.19140625 241.28125 C-190.67006181 245.00726354 -193.02044011 248.81003823 -195.359375 252.625 C-197.03266084 255.04728045 -198.85795951 256.98834458 -201 259 C-201.33 258.34 -201.66 257.68 -202 257 C-199.4129238 251.15791156 -196.06770435 245.90929836 -192 241 C-190.99644919 239.00177935 -189.99720963 237.00139275 -189 235 C-187.50083198 232.30815896 -185.94140448 229.65316761 -184.375 227 C-183.93696045 226.25669434 -183.4989209 225.51338867 -183.04760742 224.74755859 C-178.87561689 217.71337978 -174.46397695 210.85090646 -170 204 C-168.83054423 202.16844454 -167.66372242 200.33520363 -166.5 198.5 C-163.82121875 194.28604713 -161.13418965 190.07750949 -158.4375 185.875 C-158.05368164 185.2766333 -157.66986328 184.6782666 -157.27441406 184.06176758 C-155.13928735 180.74224118 -152.9668206 177.45289385 -150.75 174.1875 C-148.90742847 171.44657716 -147.23479775 168.67807727 -145.6640625 165.7734375 C-143.15142024 161.21368148 -140.43103836 156.82109811 -137.625 152.4375 C-136.55938414 150.76074175 -135.49430536 149.08364209 -134.4296875 147.40625 C-133.87120117 146.52710938 -133.31271484 145.64796875 -132.73730469 144.7421875 C-123.70159533 130.48008976 -114.82618488 116.11797325 -105.99243164 101.73022461 C-101.42549398 94.29817196 -96.81890577 86.89202653 -92.1875 79.5 C-87.68385538 72.30664603 -83.19063334 65.10746832 -78.75 57.875 C-78.30809326 57.15892578 -77.86618652 56.44285156 -77.41088867 55.70507812 C-75.07445825 51.8857625 -72.93922938 48.04215994 -71 44 C-70.34 44 -69.68 44 -69 44 C-68.34 41.69 -67.68 39.38 -67 37 C-66.34 37 -65.68 37 -65 37 C-64.58041016 35.92492187 -64.58041016 35.92492187 -64.15234375 34.828125 C-60.06642953 24.80032196 -55.1406138 18.05382719 -46 12 C-44.33544056 11.32808923 -42.66928392 10.66008591 -41 10 C-40.67 9.34 -40.34 8.68 -40 8 C-39.01 8 -38.02 8 -37 8 C-37 7.34 -37 6.68 -37 6 C-10.61346842 -1.69294588 -10.61346842 -1.69294588 0 0 Z M-204 259 C-203.34 259 -202.68 259 -202 259 C-202.33 259.99 -202.66 260.98 -203 262 C-203.99 262.33 -204.98 262.66 -206 263 C-205.34 261.68 -204.68 260.36 -204 259 Z " fill="#7AC1FB" transform="translate(534,256)"/>
<path d="M0 0 C1 3 1 3 0.36669922 4.8059082 C0.01623535 5.46421631 -0.33422852 6.12252441 -0.6953125 6.80078125 C-1.27539062 7.89616211 -1.27539062 7.89616211 -1.8671875 9.01367188 C-2.28226563 9.77228516 -2.69734375 10.53089844 -3.125 11.3125 C-3.516875 12.05951172 -3.90875 12.80652344 -4.3125 13.57617188 C-8.04701549 20.52652014 -12.27043433 25.67284527 -18.5 30.625 C-19.4178125 31.35976563 -20.335625 32.09453125 -21.28125 32.8515625 C-23.0665516 34.26236118 -24.85933919 35.66374804 -26.66015625 37.0546875 C-28.72343024 38.77006387 -30.29101946 40.40014077 -31.9375 42.5 C-34.61990395 45.71751267 -37.39384198 47.82127953 -41 50 C-42.5159375 51.0209375 -42.5159375 51.0209375 -44.0625 52.0625 C-45.82853148 53.22732928 -47.61520832 54.36281517 -49.4375 55.4375 C-52.21749948 57.13262164 -54.76969942 59.03151155 -57.3515625 61.01171875 C-59 62 -59 62 -62 62 C-62 62.66 -62 63.32 -62 64 C-63.32 64 -64.64 64 -66 64 C-66 64.66 -66 65.32 -66 66 C-67.95585325 67.00484204 -69.91476237 68.00373805 -71.875 69 C-72.96554687 69.556875 -74.05609375 70.11375 -75.1796875 70.6875 C-78 72 -78 72 -80 72 C-80 72.66 -80 73.32 -80 74 C-80.58007812 74.18175781 -81.16015625 74.36351562 -81.7578125 74.55078125 C-85.45297989 75.73982026 -88.89384352 76.94692176 -92.375 78.6875 C-95 80 -95 80 -98 80 C-98 80.66 -98 81.32 -98 82 C-99.03640625 82.40992188 -100.0728125 82.81984375 -101.140625 83.2421875 C-102.51045339 83.7863659 -103.88024302 84.33064187 -105.25 84.875 C-105.93191406 85.14441406 -106.61382813 85.41382813 -107.31640625 85.69140625 C-110.61520973 87.0045222 -113.86212936 88.33401714 -117 90 C-116.01 91.485 -116.01 91.485 -115 93 C-122.70395107 97.04542859 -130.61490843 100.39373404 -138.6875 103.625 C-140.05770217 104.17715896 -141.42773215 104.72974537 -142.79760742 105.28271484 C-145.83527638 106.5082419 -148.87387548 107.73142592 -151.91308594 108.953125 C-160.5280577 112.41757043 -169.13461641 115.90288064 -177.74285889 119.38400269 C-180.80178017 120.62066618 -183.86104616 121.85647318 -186.92041016 123.09204102 C-195.55121486 126.57834162 -204.18114738 130.0664161 -212.796875 133.58984375 C-213.4384404 133.8520874 -214.0800058 134.11433105 -214.74101257 134.38452148 C-217.58284447 135.54660836 -220.42365154 136.71110412 -223.26293945 137.87939453 C-224.219021 138.2711084 -225.17510254 138.66282227 -226.16015625 139.06640625 C-226.96074463 139.39584229 -227.76133301 139.72527832 -228.58618164 140.06469727 C-231.35590588 141.13790588 -234.18205143 142.06068381 -237 143 C-117.705 143.495 -117.705 143.495 4 144 C4 144.33 4 144.66 4 145 C2.74215384 144.9968576 1.48430767 144.99371519 0.18834496 144.99047756 C-29.76045747 144.9176798 -59.70890772 144.89177994 -89.65776578 144.92259431 C-93.35468863 144.92635763 -97.05161173 144.92973032 -100.74853516 144.93286133 C-101.85238761 144.93380606 -101.85238761 144.93380606 -102.97854011 144.93476988 C-114.84925913 144.94400079 -126.71971554 144.92168336 -138.59037967 144.88743024 C-150.79699027 144.85292043 -163.00325932 144.8529549 -175.20988023 144.88417059 C-182.72478659 144.90232615 -190.23869557 144.89445651 -197.75350706 144.85184724 C-203.54401143 144.82192261 -209.33363565 144.84037107 -215.12407303 144.87562943 C-217.47884631 144.88269828 -219.83372659 144.87481153 -222.18837738 144.84977531 C-237.81620015 144.69509756 -249.79076939 147.13014541 -263.81374681 154.19149882 C-266.33027319 155.12213876 -268.33778385 155.14434948 -271 155 C-271 154.34 -271 153.68 -271 153 C-277.51131643 155.10808694 -283.92215029 157.42608782 -290.3125 159.875 C-291.2411084 160.23013672 -292.1697168 160.58527344 -293.12646484 160.95117188 C-299.80352228 163.51594678 -306.42334931 166.18719229 -313 169 C-315.4975001 170.06756508 -317.99573008 171.1333196 -320.49560547 172.1953125 C-322.22523891 172.93020597 -323.95347533 173.66839768 -325.68017578 174.41015625 C-326.4689209 174.7453125 -327.25766602 175.08046875 -328.0703125 175.42578125 C-328.77945801 175.72911377 -329.48860352 176.03244629 -330.21923828 176.3449707 C-332 177 -332 177 -334 177 C-334 177.66 -334 178.32 -334 179 C-335.32 179.33 -336.64 179.66 -338 180 C-335.29589508 170.36662623 -330.54331501 161.31497251 -325 153 C-324.68804687 152.21238281 -324.37609375 151.42476562 -324.0546875 150.61328125 C-322.97104719 147.92826137 -321.65561968 145.64204295 -320.125 143.1875 C-317.82162392 139.42700036 -315.78373589 135.63569909 -313.8671875 131.66796875 C-313 130 -313 130 -311.4375 127.9375 C-309.79232282 125.72008728 -308.84984103 123.38659776 -307.8046875 120.84375 C-306.45616374 117.75392858 -304.72881061 114.88711371 -303 112 C-302.26523437 110.76830078 -302.26523437 110.76830078 -301.515625 109.51171875 C-299.52670601 106.18864866 -297.53453033 102.86808842 -295.50390625 99.5703125 C-293.86544964 96.7700412 -292.42698544 93.9134286 -291 91 C-289.14830041 87.21944668 -287.2061544 83.5850009 -285 80 C-282.5350069 75.98272746 -280.3133273 71.8596527 -278.125 67.6875 C-273.95830815 59.79177019 -273.95830815 59.79177019 -271.5 56.0625 C-268.57444506 51.57533127 -266.32670896 46.72672539 -264.02929688 41.89672852 C-261.76088502 37.21726981 -259.07613857 33.19230691 -256 29 C-256 28.67 -256 28.34 -256 28 C-251.70838953 27.94216158 -247.41687855 27.9064588 -243.125 27.875 C-241.90167969 27.85824219 -240.67835938 27.84148438 -239.41796875 27.82421875 C-238.25136719 27.81777344 -237.08476562 27.81132813 -235.8828125 27.8046875 C-234.80402832 27.79421387 -233.72524414 27.78374023 -232.61376953 27.77294922 C-230 28 -230 28 -228 30 C-225.3498956 30.45093956 -225.3498956 30.45093956 -222.24365234 30.59155273 C-220.48103058 30.70175247 -220.48103058 30.70175247 -218.68280029 30.81417847 C-212.82349871 31.10981883 -206.96532465 31.3479484 -201.1015625 31.53515625 C-199.80450378 31.57826935 -198.50744507 31.62138245 -197.17108154 31.665802 C-192.98922087 31.80351708 -188.80713862 31.93354531 -184.625 32.0625 C-183.91188911 32.08471745 -183.19877823 32.10693489 -182.46405792 32.12982559 C-158.97431604 32.86074241 -135.50204016 33.4177674 -112 33 C-111.31838806 32.98797546 -110.63677612 32.97595093 -109.93450928 32.96356201 C-100.61598728 32.79028542 -91.30823991 32.47339203 -82 32 C-80.92202148 31.94618164 -79.84404297 31.89236328 -78.73339844 31.83691406 C-55.55866928 30.57672142 -29.87614268 27.21169736 -12 11 C-11.11183594 10.21753906 -10.22367188 9.43507813 -9.30859375 8.62890625 C-6.14230708 5.81392877 -2.99615692 2.99615692 0 0 Z " fill="#62BD58" transform="translate(685,535)"/>
<path d="M0 0 C1.81982422 0.203125 1.81982422 0.203125 4 1 C5.48876953 3.046875 5.48876953 3.046875 6.8828125 5.75 C7.66567627 7.23753784 7.66567627 7.23753784 8.46435547 8.75512695 C9.01236816 9.82593506 9.56038086 10.89674316 10.125 12 C11.2944586 14.2239286 12.46634515 16.4465821 13.640625 18.66796875 C14.50204102 20.30451416 14.50204102 20.30451416 15.38085938 21.97412109 C17.4393446 25.82105503 19.62515876 29.57528221 21.875 33.3125 C26.17426132 40.49956369 30.25751481 47.79763356 34.3125 55.125 C47.14371288 78.39968464 47.14371288 78.39968464 60.62304688 101.30078125 C63.87947079 106.69072428 66.87889859 112.21211233 69.875 117.75 C74.92826658 127.08776607 80.13944773 136.3143685 85.515625 145.46972656 C87.16192017 148.27600998 88.799438 151.0873411 90.4375 153.8984375 C91.60369734 155.89089977 92.77035616 157.88309202 93.9375 159.875 C94.48140381 160.80892578 95.02530762 161.74285156 95.58569336 162.70507812 C98.15429167 167.06973387 100.75973446 171.09195139 104 175 C104.75 177.3125 104.75 177.3125 105 179 C105.66 179 106.32 179 107 179 C107.33 180.98 107.66 182.96 108 185 C97.2173393 188.95364226 86.50182031 190.28496943 75.0625 190.6171875 C73.33664673 190.67348831 73.33664673 190.67348831 71.57592773 190.73092651 C56.23865931 191.17825086 40.89571766 191.15288797 25.55335617 191.12857056 C22.96827838 191.12495564 20.38320625 191.12337012 17.79812622 191.12231445 C-22.80473065 191.1018549 -63.40200417 190.59143951 -104 190 C-100.90851381 181.76357139 -96.14390461 178.09192305 -88.75 173.875 C-74.65646139 165.52668995 -61.74186635 156.44877764 -50 145 C-49.34902344 144.41089844 -48.69804687 143.82179688 -48.02734375 143.21484375 C-34.21390971 130.4083115 -20.68663787 106.78717148 -19.6640625 87.81640625 C-19.6348513 86.39867862 -19.62209454 84.98052556 -19.625 83.5625 C-19.62516113 82.82185303 -19.62532227 82.08120605 -19.62548828 81.31811523 C-19.76607138 74.57678573 -21.11461475 68.88538525 -26 64 C-28.44012949 63.75712511 -28.44012949 63.75712511 -31.125 63.875 C-32.03507812 63.89304687 -32.94515625 63.91109375 -33.8828125 63.9296875 C-34.58148438 63.95289063 -35.28015625 63.97609375 -36 64 C-34.65156487 59.43448612 -32.80874436 55.73379324 -30.3125 51.6875 C-29.51254555 50.37919674 -28.71310771 49.07057753 -27.9140625 47.76171875 C-27.46192383 47.0248584 -27.00978516 46.28799805 -26.54394531 45.52880859 C-23.39480275 40.37086763 -20.29584613 35.18258607 -17.1875 30 C-16.54143799 28.92580811 -15.89537598 27.85161621 -15.22973633 26.74487305 C-9.59508911 17.85691241 -9.59508911 17.85691241 -5 8.4375 C-3.72493865 5.32953796 -1.91701774 2.74772543 0 0 Z " fill="#265BCC" transform="translate(533,372)"/>
<path d="M0 0 C0.66 0 1.32 0 2 0 C2.3810791 0.69222656 2.7621582 1.38445312 3.15478516 2.09765625 C9.99111265 14.49986137 16.86506428 26.86498935 24.0625 39.0625 C29.65864913 48.55600984 34.95724296 58.18606042 40.11938477 67.92211914 C43.90783953 75.05382979 47.88264142 82.05297185 52 89 C51.01 89.33 50.02 89.66 49 90 C48.28272222 91.64551962 47.61674772 93.31422289 47 95 C46.34 95.66 45.68 96.32 45 97 C44.27330664 98.67762354 43.55000632 100.35689175 42.85253906 102.046875 C41.42178106 105.32467112 39.64761847 108.39743441 37.875 111.5 C37.28513306 112.54039429 37.28513306 112.54039429 36.68334961 113.60180664 C32.14146733 121.57248001 27.38206238 129.41271708 22.63183594 137.26025391 C21.22721408 139.586327 19.8316576 141.91764352 18.4375 144.25 C17.99543213 144.97759521 17.55336426 145.70519043 17.09790039 146.45483398 C14.64765054 150.44645944 14.64765054 150.44645944 14 155 C13.09797852 155.33040283 13.09797852 155.33040283 12.17773438 155.66748047 C-14.16511014 165.34942162 -39.75393871 176.43182829 -65.22546387 188.18237305 C-66.82665019 188.92012815 -68.42934827 189.65460008 -70.03222656 190.38867188 C-81.67415603 195.72508985 -92.92148388 201.57423009 -104 208 C-105.24064209 208.71808838 -105.24064209 208.71808838 -106.50634766 209.45068359 C-116.75122263 215.41116156 -126.72758566 221.57718411 -136.22558594 228.67431641 C-138.18764254 230.14018973 -140.16012126 231.59144306 -142.1328125 233.04296875 C-148.98323968 238.10769486 -155.76554399 243.17570557 -162 249 C-162.59765625 247.1875 -162.59765625 247.1875 -163 245 C-160.4797149 240.16105261 -157.548194 237.8673397 -153 235 C-152.34 234.01 -151.68 233.02 -151 232 C-150.34 232 -149.68 232 -149 232 C-148.7215625 231.42894531 -148.443125 230.85789062 -148.15625 230.26953125 C-144.79504722 223.67203526 -140.70082582 217.50374326 -136.5625 211.375 C-131.46462516 203.81282428 -126.64203983 196.08788536 -121.82617188 188.34399414 C-116.87204004 180.38083838 -111.85351118 172.46106763 -106.80249023 164.55908203 C-102.96401804 158.54482986 -99.20962409 152.48839509 -95.55078125 146.36328125 C-94 144 -94 144 -92.5390625 142.54296875 C-90.2877967 140.28598907 -88.76663235 137.69106933 -87.0625 135 C-86.67626465 134.39188477 -86.2900293 133.78376953 -85.89208984 133.15722656 C-85.04461844 131.82143272 -84.19899935 130.48446237 -83.35498047 129.14648438 C-81.95117171 126.92264894 -80.54053357 124.70325453 -79.12890625 122.484375 C-74.11842583 114.59492182 -69.16768624 106.67352088 -64.3125 98.6875 C-60.49508501 92.40845027 -56.58408797 86.20738902 -52.58984375 80.0390625 C-49.11285312 74.64173151 -45.71632588 69.19363687 -42.3125 63.75 C-41.6824707 62.74372559 -41.05244141 61.73745117 -40.40332031 60.70068359 C-37.49224714 56.03943701 -34.60929014 51.36604929 -31.796875 46.64453125 C-29.61822415 42.9951548 -27.34005303 39.44512876 -24.9375 35.9375 C-22.64648819 32.54628478 -20.50769453 29.19483645 -18.625 25.5625 C-16.42999641 21.47215201 -13.76027317 17.85792361 -10.9375 14.1875 C-10.51355957 13.63586182 -10.08961914 13.08422363 -9.65283203 12.51586914 C-7.26974902 9.47071523 -4.74270662 6.71848846 -2 4 C-0.76487921 1.86690808 -0.76487921 1.86690808 0 0 Z " fill="#3B99FA" transform="translate(484,282)"/>
<path d="M0 0 C3.14832066 2.73250472 5.05059053 6.19315664 7.125 9.75 C9.55442311 13.90796299 11.99293685 18.03186983 14.66015625 22.04296875 C15.08345215 22.69620117 15.50674805 23.34943359 15.94287109 24.02246094 C16.7530909 25.26909964 17.58210514 26.50378701 18.43212891 27.72363281 C20.02829508 30.22557943 21.07493291 32.2170803 20.78759766 35.21923828 C20.23828125 37.44140625 20.23828125 37.44140625 19 41 C18.34 41 17.68 41 17 41 C17 45.62 17 50.24 17 55 C17.66 55 18.32 55 19 55 C18.81824219 55.62003906 18.63648438 56.24007812 18.44921875 56.87890625 C16.89756544 62.34550021 15.61798445 67.79021143 14.5625 73.375 C12.9345905 81.76301791 11.07288707 90.4153792 7 98 C6.34 98 5.68 98 5 98 C5.33 97.071875 5.66 96.14375 6 95.1875 C7.14967004 92.07970709 7.14967004 92.07970709 7 89 C6.56171875 89.47308594 6.1234375 89.94617188 5.671875 90.43359375 C-16.08238426 113.11638847 -43.6254799 118.48354414 -74 120 C-75.66337402 120.08459473 -75.66337402 120.08459473 -77.36035156 120.17089844 C-86.23707119 120.59431521 -95.11505481 120.84325782 -104 121 C-104.67645569 121.01202454 -105.35291138 121.02404907 -106.04986572 121.03643799 C-129.58804153 121.42870608 -153.10023378 120.79542979 -176.625 120.0625 C-177.68620686 120.02977808 -177.68620686 120.02977808 -178.76885223 119.99639511 C-183.54663962 119.84883916 -188.32413509 119.69395376 -193.1015625 119.53515625 C-194.9151828 119.47725418 -194.9151828 119.47725418 -196.76544189 119.41818237 C-200.17829037 119.30022212 -203.58874543 119.15716836 -207 119 C-208.2153241 118.95028046 -209.43064819 118.90056091 -210.68280029 118.84933472 C-211.85788147 118.78489166 -213.03296265 118.72044861 -214.24365234 118.65405273 C-215.30160004 118.60087387 -216.35954773 118.54769501 -217.44955444 118.49290466 C-218.71202499 118.24891685 -218.71202499 118.24891685 -220 118 C-220.66 117.01 -221.32 116.02 -222 115 C-221.31367335 114.99576806 -220.62734671 114.99153612 -219.92022228 114.98717594 C-203.08679234 114.88309205 -186.25339922 114.77435171 -169.42003155 114.66066074 C-161.27897564 114.60578486 -153.13791545 114.55238714 -144.99682617 114.50268555 C-137.88684058 114.45927489 -130.77688133 114.41287072 -123.66693717 114.36312145 C-119.915217 114.33696808 -116.16350049 114.31214336 -112.41174889 114.29092598 C-97.91228001 114.20795415 -83.42072412 114.05804389 -68.92871094 113.54370117 C-67.8313798 113.50580003 -66.73404867 113.46789888 -65.60346508 113.42884922 C-58.09344388 113.13327498 -50.90335102 112.43552429 -43.5625 110.75 C-42.53302246 110.52747559 -41.50354492 110.30495117 -40.44287109 110.07568359 C-23.11570863 106.16736321 -6.40339511 97.59605506 4.25 82.875 C8.08873534 76.70248806 10.45502016 69.77639209 13 63 C13.57041016 61.81857422 13.57041016 61.81857422 14.15234375 60.61328125 C19.75970133 43.32608208 11.62217058 24.24794844 4 9 C3.25946322 7.68787619 2.50878878 6.38140029 1.74609375 5.08203125 C0 2 0 2 0 0 Z " fill="#C5EA6E" transform="translate(677,448)"/>
<path d="M0 0 C2.31 0.66 4.62 1.32 7 2 C7 7.7533204 4.54544498 10.44603328 0.8125 14.5625 C-14.00682903 31.21099307 -24.69572586 52.98763076 -36.19482422 71.97265625 C-39.79784519 77.91962432 -43.5041382 83.78557247 -47.31982422 89.59765625 C-54.15467251 100.01187725 -60.6772036 110.58914787 -67.08764648 121.26782227 C-70.52025009 126.97752839 -74.00480181 132.62706262 -77.74243164 138.14331055 C-78.79410875 139.69601962 -79.81500122 141.26952114 -80.828125 142.84765625 C-81.29734375 143.57855469 -81.7665625 144.30945313 -82.25 145.0625 C-82.72953125 145.81660156 -83.2090625 146.57070313 -83.703125 147.34765625 C-84.13109375 147.89292969 -84.5590625 148.43820312 -85 149 C-85.66 149 -86.32 149 -87 149 C-87.24234375 149.68191406 -87.4846875 150.36382812 -87.734375 151.06640625 C-89.25036058 154.58031111 -91.19740153 157.72181667 -93.25 160.9375 C-93.68328613 161.62352295 -94.11657227 162.3095459 -94.56298828 163.01635742 C-96.03727974 165.34726216 -97.5182086 167.67385657 -99 170 C-100.11725467 171.75776981 -101.23443978 173.51558383 -102.3515625 175.2734375 C-104.72134779 179.00036709 -107.09442243 182.72518175 -109.46875 186.44921875 C-112.27676929 190.85710242 -115.06662688 195.27607739 -117.84936523 199.69995117 C-122.20627119 206.62540275 -126.61092046 213.50098828 -131.19140625 220.28125 C-133.67006181 224.00726354 -136.02044011 227.81003823 -138.359375 231.625 C-140.03266084 234.04728045 -141.85795951 235.98834458 -144 238 C-144.33 237.34 -144.66 236.68 -145 236 C-142.4129238 230.15791156 -139.06770435 224.90929836 -135 220 C-133.99644919 218.00177935 -132.99720963 216.00139275 -132 214 C-130.50083198 211.30815896 -128.94140448 208.65316761 -127.375 206 C-126.93696045 205.25669434 -126.4989209 204.51338867 -126.04760742 203.74755859 C-121.87561689 196.71337978 -117.46397695 189.85090646 -113 183 C-111.83054423 181.16844454 -110.66372242 179.33520363 -109.5 177.5 C-106.82121875 173.28604713 -104.13418965 169.07750949 -101.4375 164.875 C-101.05368164 164.2766333 -100.66986328 163.6782666 -100.27441406 163.06176758 C-98.13928735 159.74224118 -95.9668206 156.45289385 -93.75 153.1875 C-91.90742847 150.44657716 -90.23479775 147.67807727 -88.6640625 144.7734375 C-86.15142024 140.21368148 -83.43103836 135.82109811 -80.625 131.4375 C-79.55938414 129.76074175 -78.49430536 128.08364209 -77.4296875 126.40625 C-76.87120117 125.52710938 -76.31271484 124.64796875 -75.73730469 123.7421875 C-66.70159533 109.48008976 -57.82618488 95.11797325 -48.99243164 80.73022461 C-44.42549398 73.29817196 -39.81890577 65.89202653 -35.1875 58.5 C-30.68385538 51.30664603 -26.19063334 44.10746832 -21.75 36.875 C-21.30809326 36.15892578 -20.86618652 35.44285156 -20.41088867 34.70507812 C-18.07445825 30.8857625 -15.93922938 27.04215994 -14 23 C-13.34 23 -12.68 23 -12 23 C-11.34 20.69 -10.68 18.38 -10 16 C-9.34 16 -8.68 16 -8 16 C-7.73445312 15.29488281 -7.46890625 14.58976562 -7.1953125 13.86328125 C-5.93501033 10.84432214 -4.46042006 8.04814924 -2.875 5.1875 C-2.33617187 4.21167969 -1.79734375 3.23585938 -1.2421875 2.23046875 C-0.83226562 1.49441406 -0.42234375 0.75835937 0 0 Z M-147 238 C-146.34 238 -145.68 238 -145 238 C-145.33 238.99 -145.66 239.98 -146 241 C-146.99 241.33 -147.98 241.66 -149 242 C-148.34 240.68 -147.68 239.36 -147 238 Z " fill="#6BBAFC" transform="translate(477,277)"/>
<path d="M0 0 C17.166546 -0.37499736 32.51672111 2.17111115 46 14 C52.63281399 20.58945636 57.35007389 28.04134918 62.0625 36.0625 C63.17651539 37.9331566 64.29416485 39.80160816 65.41215515 41.66989136 C66.16880445 42.93451775 66.9244299 44.1997573 67.67903137 45.46560669 C71.30091859 51.53334854 75.04569563 57.52128738 78.8125 63.5 C83.3531228 70.72366411 87.82184128 77.98174488 92.1875 85.3125 C96.42386099 92.42476174 100.77601221 99.45032008 105.21948242 106.43481445 C109.54678883 113.24901444 113.77942728 120.11928107 118 127 C123.12068123 135.34689135 128.2907511 143.6572602 133.54492188 151.9206543 C138.22538773 159.30611654 142.7613304 166.77819679 147.28173828 174.26245117 C150.66789084 179.87539114 150.66789084 179.87539114 154.2734375 185.34765625 C155.93568881 187.9012052 157.06288711 190.27782343 158.125 193.125 C159.2765128 196.17983974 160.49145942 199.10306808 162 202 C161.01 202.66 160.02 203.32 159 204 C146.44297737 183.80312488 146.44297737 183.80312488 141.4375 175.4375 C140.92195557 174.57620483 140.92195557 174.57620483 140.39599609 173.69750977 C138.76503848 170.96768793 137.13924123 168.23486639 135.51757812 165.49951172 C133.91057306 162.78953469 132.29906676 160.08226613 130.6875 157.375 C130.183396 156.52091553 129.67929199 155.66683105 129.15991211 154.78686523 C126.66407948 150.59905582 124.06170551 146.80030251 121 143 C120.00637285 141.28609292 119.01402967 139.57116866 118.05371094 137.83837891 C116.24290035 134.6791102 114.17094194 131.6975764 112.125 128.6875 C108.22817732 122.89182586 104.51244272 117.03833978 101 111 C99.39898867 108.24814832 97.79484428 105.49815779 96.1875 102.75 C95.54603027 101.65268555 95.54603027 101.65268555 94.89160156 100.53320312 C91.77062407 95.22777553 88.48992256 90.04879863 85.12060547 84.89868164 C82.36051474 80.64759951 79.89775946 76.29944937 77.58203125 71.79296875 C76.20283477 69.35809102 74.73490175 67.08483509 73.16796875 64.76953125 C69.53225614 59.37664143 66.34669586 53.76231862 63.14453125 48.10546875 C59.98446789 42.57309421 56.58686546 37.26438741 53 32 C52.34515625 31.00871094 51.6903125 30.01742188 51.015625 28.99609375 C40.77282979 14.15310511 27.24626007 7.59779603 9.98095703 4.31201172 C5.92869226 3.67375754 2.08305885 3.74075817 -2 4 C-1.34 2.68 -0.68 1.36 0 0 Z " fill="#9ED5F9" transform="translate(521,258)"/>
<path d="M0 0 C1.17280014 0.00539291 1.17280014 0.00539291 2.36929321 0.01089478 C3.18873917 0.01074875 4.00818512 0.01060272 4.85246277 0.01045227 C7.57416385 0.01115164 10.29579737 0.01894515 13.01748657 0.02676392 C14.89935773 0.02862801 16.78122938 0.03005195 18.6631012 0.03105164 C23.62631561 0.0348775 28.58950096 0.04470836 33.55270386 0.05575562 C38.61322639 0.06596827 43.67375359 0.07054894 48.73428345 0.07559204 C58.67114521 0.08633057 68.60798535 0.10340781 78.54483032 0.12442017 C78.54483032 0.45442017 78.54483032 0.78442017 78.54483032 1.12442017 C77.54337982 1.12140396 76.54192932 1.11838776 75.51013184 1.11528015 C66.06398277 1.09138715 56.61849978 1.10423415 47.17243767 1.15288639 C42.31620918 1.17672224 37.46066672 1.18769371 32.60440063 1.1690979 C27.91608543 1.1516213 23.22900166 1.16815603 18.54083633 1.20809746 C16.75393929 1.21737877 14.96693546 1.21448442 13.18008041 1.19911385 C3.79612944 0.76937635 3.79612944 0.76937635 -4.84007263 3.60189819 C-6.43045709 5.39719535 -7.44045856 6.96074954 -8.45516968 9.12442017 C-9.03818596 10.16719368 -9.03818596 10.16719368 -9.63298035 11.23103333 C-10.72497914 13.20328568 -11.69061676 15.20627212 -12.64266968 17.24942017 C-13.30099136 18.62790197 -13.96110914 20.00552764 -14.62313843 21.38223267 C-14.93493042 22.0308728 -15.24672241 22.67951294 -15.56796265 23.34780884 C-16.73761761 25.69001554 -18.07232353 27.90237978 -19.45516968 30.12442017 C-20.62582451 32.10123049 -21.79233001 34.08050257 -22.95516968 36.06192017 C-23.54298218 37.0609436 -24.13079468 38.05996704 -24.73641968 39.08926392 C-26.41637722 42.0559162 -27.94460595 45.0688639 -29.45516968 48.12442017 C-30.44251508 49.79861455 -31.44329073 51.46493869 -32.45516968 53.12442017 C-33.4698082 54.88883173 -34.47457655 56.65864144 -35.47860718 58.42910767 C-36.31769467 59.88576355 -37.19534359 61.32008572 -38.08016968 62.74942017 C-39.50550261 65.06549118 -39.50550261 65.06549118 -40.36532593 67.51113892 C-41.4336601 70.07284345 -42.66391003 72.05650092 -44.26766968 74.31192017 C-47.02210304 78.33299076 -49.18738944 82.45768429 -51.29891968 86.84317017 C-52.78157713 89.76841324 -54.63756224 92.39800901 -56.45516968 95.12442017 C-56.92954468 96.23817017 -57.40391968 97.35192017 -57.89266968 98.49942017 C-59.41052929 102.02085447 -61.18173108 105.03327265 -63.27157593 108.22988892 C-64.46918935 110.1468609 -65.45720395 112.09742362 -66.45516968 114.12442017 C-67.70279691 116.35975229 -68.96800501 118.58442113 -70.23641968 120.80801392 C-71.50329194 123.11347848 -71.50329194 123.11347848 -72.43563843 125.61660767 C-73.49300696 128.21749119 -74.77839274 130.43457835 -76.26766968 132.81192017 C-81.9619023 141.99152593 -81.9619023 141.99152593 -85.45516968 152.12442017 C-84.46516968 152.12442017 -83.47516968 152.12442017 -82.45516968 152.12442017 C-82.45516968 151.46442017 -82.45516968 150.80442017 -82.45516968 150.12442017 C-63.81638272 142.38898743 -45.16206223 134.69407098 -26.45516968 127.12442017 C-25.5811853 126.72883911 -24.70720093 126.33325806 -23.80673218 125.9256897 C-21.45516968 125.12442017 -21.45516968 125.12442017 -18.45516968 126.12442017 C-18.78516968 126.78442017 -19.11516968 127.44442017 -19.45516968 128.12442017 C-12.55462172 126.27344966 -6.01591023 123.82989973 0.54116821 121.01846313 C2.18677713 120.33113538 3.86420794 119.72104111 5.54483032 119.12442017 C6.20483032 119.45442017 6.86483032 119.78442017 7.54483032 120.12442017 C0.13077171 123.49071477 -7.3831939 126.59051787 -14.92709351 129.65078735 C-16.99027871 130.48830128 -19.05187206 131.32964505 -21.1133728 132.17129517 C-28.69477334 135.25655311 -36.3036098 138.24168571 -43.98704529 141.06445312 C-48.20907085 142.62278545 -52.33270488 144.32389945 -56.45516968 146.12442017 C-62.84681566 148.90752544 -69.30581805 151.42399665 -75.85751343 153.80020142 C-77.86838334 154.54035874 -79.87163465 155.30700826 -81.83407593 156.16738892 C-94.09238409 161.27701639 -110.33447859 158.64074803 -122.45516968 154.12442017 C-127.26979606 152.06869839 -131.88071349 149.66896142 -136.45516968 147.12442017 C-135.79516968 146.79442017 -135.13516968 146.46442017 -134.45516968 146.12442017 C-132.44294991 146.96605553 -130.46900582 147.89991222 -128.51766968 148.87442017 C-115.78620648 154.85182827 -104.34664884 155.72985318 -90.45516968 156.12442017 C-90.35043335 155.5866394 -90.24569702 155.04885864 -90.13778687 154.49478149 C-89.27774979 151.5083366 -87.9586881 148.96166674 -86.53329468 146.19863892 C-86.08925545 145.33572739 -86.08925545 145.33572739 -85.63624573 144.4553833 C-84.66424263 142.57158062 -83.68522146 140.69154671 -82.70516968 138.81192017 C-82.368815 138.16371307 -82.03246033 137.51550598 -81.68591309 136.84765625 C-76.75262063 127.34647338 -71.63618595 117.96941681 -66.31283569 108.68008423 C-62.13129829 101.37249333 -58.11485672 93.98518656 -54.14266968 86.56192017 C-49.97974574 78.78657423 -45.77158914 71.05880316 -41.35360718 63.42520142 C-39.13947732 59.57553118 -36.98151137 55.69691716 -34.83016968 51.81192017 C-28.95167387 41.20217778 -23.02295843 30.62073841 -17.0899353 20.04141235 C-15.58974251 17.36454505 -14.09226111 14.68618431 -12.59579468 12.00723267 C-11.77813678 10.54626694 -10.96043244 9.0853272 -10.14266968 7.62442017 C-9.77585083 6.96619263 -9.40903198 6.30796509 -9.03109741 5.62979126 C-6.20768192 0.59402362 -5.86161605 0.01137838 0 0 Z " fill="#2A6AA8" transform="translate(433.4551696777344,561.8755798339844)"/>
<path d="M0 0 C0 3.50945269 -0.43371403 3.854422 -2.71875 6.3359375 C-3.31276611 6.98151611 -3.90678223 7.62709473 -4.51879883 8.29223633 C-5.17259521 8.97954834 -5.8263916 9.66686035 -6.5 10.375 C-7.17635498 11.08744873 -7.85270996 11.79989746 -8.54956055 12.53393555 C-18.9083578 23.23655366 -30.17326769 31.94477238 -43.06176758 39.3996582 C-47.30050867 41.83801502 -47.30050867 41.83801502 -50.953125 45.046875 C-54.13499499 48.08301048 -57.98790459 49.47947536 -62 51.1875 C-62.80695313 51.54263672 -63.61390625 51.89777344 -64.4453125 52.26367188 C-67.9432338 53.7846327 -71.270654 55.15618309 -75 56 C-75 56.66 -75 57.32 -75 58 C-76.89454824 58.96087136 -78.79069581 59.91858969 -80.6875 60.875 C-81.74324219 61.40867187 -82.79898438 61.94234375 -83.88671875 62.4921875 C-88.46953819 64.71172113 -91.85489414 66.29400605 -97 66 C-97 66.66 -97 67.32 -97 68 C-102.24537237 70.73196477 -107.58651614 73.18656814 -113 75.5625 C-113.66386719 75.85519775 -114.32773437 76.14789551 -115.01171875 76.44946289 C-128.0395529 82.12994411 -128.0395529 82.12994411 -135 83 C-132.41165901 80.41165901 -129.85327907 79.56612275 -126.4609375 78.1796875 C-125.82008209 77.91616486 -125.17922668 77.65264221 -124.51895142 77.38113403 C-122.47286447 76.54103682 -120.42400602 75.70794879 -118.375 74.875 C-116.98679088 74.30644909 -115.59876764 73.73744412 -114.2109375 73.16796875 C-110.80943219 71.7733718 -107.40540696 70.38504671 -104 69 C-104.99 68.01 -105.98 67.02 -107 66 C-104.86391624 65.05062944 -102.72759663 64.10185949 -100.58984375 63.15625 C-98.88929784 62.39703192 -97.19373992 61.62652115 -95.50390625 60.84375 C-94.71886719 60.4828125 -93.93382812 60.121875 -93.125 59.75 C-92.40570312 59.41484375 -91.68640625 59.0796875 -90.9453125 58.734375 C-89 58 -89 58 -86 58 C-86 57.34 -86 56.68 -86 56 C-72.89320388 50 -72.89320388 50 -68 50 C-68 49.34 -68 48.68 -68 48 C-66.04414675 46.99515796 -64.08523763 45.99626195 -62.125 45 C-61.03445313 44.443125 -59.94390625 43.88625 -58.8203125 43.3125 C-56 42 -56 42 -54 42 C-54 41.34 -54 40.68 -54 40 C-52.68 40 -51.36 40 -50 40 C-50 39.34 -50 38.68 -50 38 C-49.07767578 37.51080078 -49.07767578 37.51080078 -48.13671875 37.01171875 C-47.32847656 36.57472656 -46.52023437 36.13773438 -45.6875 35.6875 C-44.88699219 35.25824219 -44.08648438 34.82898438 -43.26171875 34.38671875 C-41.14258388 33.0874219 -39.73941631 31.74410477 -38 30 C-36.1328125 28.97265625 -36.1328125 28.97265625 -34.125 28.0625 C-30.67916691 26.42192873 -27.95227664 24.43128664 -25 22 C-24.34 22 -23.68 22 -23 22 C-22.773125 21.443125 -22.54625 20.88625 -22.3125 20.3125 C-19.09266992 14.63946605 -13.48410513 10.91122199 -8.44921875 6.9375 C-5.58863744 4.674584 -2.78975892 2.34927067 0 0 Z " fill="#ADDC49" transform="translate(673,559)"/>
<path d="M0 0 C3.14832066 2.73250472 5.05059053 6.19315664 7.125 9.75 C9.55442311 13.90796299 11.99293685 18.03186983 14.66015625 22.04296875 C15.08345215 22.69620117 15.50674805 23.34943359 15.94287109 24.02246094 C16.7530909 25.26909964 17.58210514 26.50378701 18.43212891 27.72363281 C20.02829508 30.22557943 21.07493291 32.2170803 20.78759766 35.21923828 C20.23828125 37.44140625 20.23828125 37.44140625 19 41 C18.34 41 17.68 41 17 41 C17 45.62 17 50.24 17 55 C17.66 55 18.32 55 19 55 C18.81824219 55.62003906 18.63648438 56.24007812 18.44921875 56.87890625 C16.89756544 62.34550021 15.61798445 67.79021143 14.5625 73.375 C12.9345905 81.76301791 11.07288707 90.4153792 7 98 C6.34 98 5.68 98 5 98 C5.33 97.071875 5.66 96.14375 6 95.1875 C7.14967004 92.07970709 7.14967004 92.07970709 7 89 C6.56171875 89.47308594 6.1234375 89.94617188 5.671875 90.43359375 C-1.93789742 98.36817353 -10.70086694 105.88034678 -21 110 C-21.99 109.67 -22.98 109.34 -24 109 C-24.6875 106.9375 -24.6875 106.9375 -25 105 C-23.9790625 104.59265625 -22.958125 104.1853125 -21.90625 103.765625 C-7.43215177 97.54787858 3.49398968 86.80136755 9.38452148 72.33203125 C10.61726275 69.23162512 11.80975161 66.11698478 13 63 C13.3815625 62.21109375 13.763125 61.4221875 14.15625 60.609375 C19.74865313 43.31435051 11.62510305 24.25381476 4 9 C3.25946322 7.68787619 2.50878878 6.38140029 1.74609375 5.08203125 C0 2 0 2 0 0 Z " fill="#CCEF63" transform="translate(677,448)"/>
<path d="M0 0 C0.33 0 0.66 0 1 0 C3.41118592 23.26468574 -2.36977586 43.09599795 -16.83203125 61.44140625 C-26.53209235 72.8892261 -37.46401766 78.90024087 -51 85 C-52.06347656 85.50273438 -52.06347656 85.50273438 -53.1484375 86.015625 C-60.73332928 89.51634428 -68.75489135 89.19390025 -76.94921875 89.31640625 C-78.15047897 89.33727798 -79.3517392 89.35814972 -80.58940125 89.37965393 C-83.91675884 89.43505524 -87.24410414 89.48566952 -90.57158661 89.53263092 C-92.71295862 89.56285938 -94.85431199 89.59422996 -96.9956665 89.62567139 C-171.66164676 90.70458429 -246.33588414 89.81058908 -321 89 C-321 88.67 -321 88.34 -321 88 C-319.73754487 87.99761165 -318.47508974 87.99522329 -317.1743784 87.99276257 C-287.1451663 87.93529036 -257.11603355 87.86248056 -227.08690757 87.77101372 C-223.38354093 87.75974678 -219.68017391 87.74860813 -215.97680664 87.73754883 C-215.23959345 87.73534514 -214.50238027 87.73314146 -213.74282729 87.730871 C-201.83651454 87.69558585 -189.93020185 87.67067229 -178.02385635 87.64965298 C-165.78908845 87.62782069 -153.55438786 87.59470046 -141.31967729 87.55129844 C-133.78207511 87.52490902 -126.24455664 87.50712034 -118.7069106 87.50065396 C-112.9080022 87.49473136 -107.10923174 87.47303499 -101.31038857 87.44572449 C-98.94547088 87.43698963 -96.58052839 87.43321214 -94.21559525 87.43499184 C-69.87761523 87.44751511 -47.08592377 85.30256532 -27.9375 68.5625 C-25 66 -25 66 -23 66 C-22.72414063 65.39929688 -22.44828125 64.79859375 -22.1640625 64.1796875 C-21 62 -21 62 -18.375 59.125 C-10.0195958 49.52343528 -5.45863626 38.08296102 -2 26 C-1.82275391 25.3817334 -1.64550781 24.7634668 -1.46289062 24.12646484 C-0.92597173 21.65992285 -0.78624352 19.31912638 -0.68359375 16.796875 C-0.64169922 15.8171875 -0.59980469 14.8375 -0.55664062 13.828125 C-0.49766602 12.30445313 -0.49766602 12.30445313 -0.4375 10.75 C-0.39431641 9.71875 -0.35113281 8.6875 -0.30664062 7.625 C-0.20074318 5.0834613 -0.09866557 2.54182804 0 0 Z " fill="#0A3CC0" transform="translate(762,592)"/>
<path d="M0 0 C37.29 0 74.58 0 113 0 C113 0.33 113 0.66 113 1 C96.83 1 80.66 1 64 1 C64.495 1.99 64.495 1.99 65 3 C106.085 3.495 106.085 3.495 148 4 C148 4.33 148 4.66 148 5 C113.75416929 6.47243366 79.62681134 6.12963803 45.375 5.0625 C44.66752876 5.04068539 43.96005753 5.01887077 43.23114777 4.99639511 C38.45336038 4.84883916 33.67586491 4.69395376 28.8984375 4.53515625 C27.6893573 4.49655487 26.4802771 4.45795349 25.23455811 4.41818237 C21.82170963 4.30022212 18.41125457 4.15716836 15 4 C13.7846759 3.95028046 12.56935181 3.90056091 11.31719971 3.84933472 C10.14211853 3.78489166 8.96703735 3.72044861 7.75634766 3.65405273 C6.16942612 3.57428444 6.16942612 3.57428444 4.55044556 3.49290466 C3.28797501 3.24891685 3.28797501 3.24891685 2 3 C1.34 2.01 0.68 1.02 0 0 Z " fill="#A4DA62" transform="translate(455,563)"/>
<path d="M0 0 C17.166546 -0.37499736 32.51672111 2.17111115 46 14 C52.16664108 20.16409988 56.90572892 27.03347369 61.43945312 34.45776367 C62.51119416 36.20575751 63.60622694 37.93763148 64.703125 39.66992188 C65.38890625 40.78302734 66.0746875 41.89613281 66.78125 43.04296875 C67.40064453 44.04352295 68.02003906 45.04407715 68.65820312 46.07495117 C70.140406 49.30607792 70.26893836 51.4871559 70 55 C69.01 55 68.02 55 67 55 C66.49210938 54.09378906 65.98421875 53.18757813 65.4609375 52.25390625 C61.55203929 45.31885662 57.56725443 38.52794446 53 32 C52.40703125 31.10539062 51.8140625 30.21078125 51.203125 29.2890625 C40.92501153 14.28301683 27.40480158 7.62796829 9.98095703 4.31201172 C5.92869226 3.67375754 2.08305885 3.74075817 -2 4 C-1.34 2.68 -0.68 1.36 0 0 Z " fill="#C0E5FD" transform="translate(521,258)"/>
<path d="M0 0 C0.99 0.495 0.99 0.495 2 1 C-6.04940236 4.64266553 -14.19659124 8.03504141 -22.375 11.375 C-23.09018799 11.66712372 -23.80537598 11.95924744 -24.54223633 12.26022339 C-33.12886472 15.75540304 -41.6716788 19.07688026 -50.58129883 21.66772461 C-55.87555331 23.24099223 -61.02978556 25.09707248 -66.19140625 27.0546875 C-66.91842743 27.33036057 -67.64544861 27.60603363 -68.39450073 27.89006042 C-72.07284393 29.28937898 -75.74558248 30.70223715 -79.4140625 32.12719727 C-80.76689212 32.64608727 -82.11975519 33.16489005 -83.47265625 33.68359375 C-84.68187744 34.15337646 -85.89109863 34.62315918 -87.13696289 35.10717773 C-90 36 -90 36 -92 35 C-90.68 34.34 -89.36 33.68 -88 33 C-88 32.34 -88 31.68 -88 31 C-69.36121304 23.26456727 -50.70689255 15.56965082 -32 8 C-31.12601562 7.60441895 -30.25203125 7.20883789 -29.3515625 6.80126953 C-27 6 -27 6 -24 7 C-24.33 7.66 -24.66 8.32 -25 9 C-18.09945204 7.14902949 -11.56074055 4.70547956 -5.00366211 1.89404297 C-3.35805319 1.20671522 -1.68062238 0.59662095 0 0 Z " fill="#35938B" transform="translate(439,681)"/>
<path d="M0 0 C0.33 0 0.66 0 1 0 C3.41118592 23.26468574 -2.36977586 43.09599795 -16.83203125 61.44140625 C-26.53659513 72.8945402 -37.46611992 78.885709 -51 85 C-51.68578125 85.33515625 -52.3715625 85.6703125 -53.078125 86.015625 C-59.49665745 89.07492551 -66.10513251 89.59112327 -73 88 C-73 87.67 -73 87.34 -73 87 C-71.38544922 86.76216797 -71.38544922 86.76216797 -69.73828125 86.51953125 C-53.89120787 84.04786901 -40.21360093 79.29459648 -27.9375 68.5625 C-25 66 -25 66 -23 66 C-22.72414063 65.39929688 -22.44828125 64.79859375 -22.1640625 64.1796875 C-21 62 -21 62 -18.375 59.125 C-10.0195958 49.52343528 -5.45863626 38.08296102 -2 26 C-1.82275391 25.3817334 -1.64550781 24.7634668 -1.46289062 24.12646484 C-0.92597173 21.65992285 -0.78624352 19.31912638 -0.68359375 16.796875 C-0.64169922 15.8171875 -0.59980469 14.8375 -0.55664062 13.828125 C-0.51732422 12.81234375 -0.47800781 11.7965625 -0.4375 10.75 C-0.37272461 9.203125 -0.37272461 9.203125 -0.30664062 7.625 C-0.20074318 5.0834613 -0.09866557 2.54182804 0 0 Z " fill="#224DB8" transform="translate(762,592)"/>
<path d="M0 0 C3.58030684 3.21825334 5.84574539 6.85209158 8.1875 11 C12.86249612 19.11374983 17.69127619 27.12828594 22.5625 35.125 C24.03939166 37.55188314 25.51581084 39.97905355 26.9921875 42.40625 C27.34456482 42.98541168 27.69694214 43.56457336 28.05999756 44.1612854 C31.46230016 49.75534968 34.84008287 55.36354552 38.19140625 60.98828125 C39.41006538 63.01762507 40.64752882 65.03578019 41.90234375 67.04296875 C42.75505859 68.41388672 42.75505859 68.41388672 43.625 69.8125 C44.11226562 70.58207031 44.59953125 71.35164062 45.1015625 72.14453125 C45.54628906 73.06298828 45.54628906 73.06298828 46 74 C45.67 74.66 45.34 75.32 45 76 C42.02474948 73.22438489 39.94474157 70.52273118 37.93359375 66.9921875 C37.3710791 66.01419189 36.80856445 65.03619629 36.22900391 64.02856445 C35.63780762 62.98788818 35.04661133 61.94721191 34.4375 60.875 C33.18506706 58.69837034 31.93114617 56.52259622 30.67578125 54.34765625 C30.05525879 53.2714502 29.43473633 52.19524414 28.79541016 51.08642578 C25.04691209 44.642516 21.1293182 38.30195898 17.2109375 31.96044922 C16.0436405 30.07065186 14.88040291 28.17842709 13.71875 26.28515625 C10.8457279 21.60552335 7.96153043 16.93678914 5 12.3125 C3 9 3 9 3 7 C2.34 7 1.68 7 1 7 C0.67 7.66 0.34 8.32 0 9 C0 6.03 0 3.06 0 0 Z " fill="#F0E27C" transform="translate(702,490)"/>
<path d="M0 0 C0 1.32 0 2.64 0 4 C-1.56119422 4.79423861 -3.12401964 5.58527123 -4.6875 6.375 C-5.99267578 7.03628906 -5.99267578 7.03628906 -7.32421875 7.7109375 C-11.73975408 9.8381297 -15.04356669 11.28322476 -20 11 C-20 11.66 -20 12.32 -20 13 C-25.24537237 15.73196477 -30.58651614 18.18656814 -36 20.5625 C-36.66386719 20.85519775 -37.32773437 21.14789551 -38.01171875 21.44946289 C-51.0395529 27.12994411 -51.0395529 27.12994411 -58 28 C-55.41165901 25.41165901 -52.85327907 24.56612275 -49.4609375 23.1796875 C-48.82008209 22.91616486 -48.17922668 22.65264221 -47.51895142 22.38113403 C-45.47286447 21.54103682 -43.42400602 20.70794879 -41.375 19.875 C-39.98679088 19.30644909 -38.59876764 18.73744412 -37.2109375 18.16796875 C-33.80943219 16.7733718 -30.40540696 15.38504671 -27 14 C-27.99 13.01 -28.98 12.02 -30 11 C-23.86334923 8.018888 -17.67312781 5.89357604 -11.11328125 4.02734375 C-7.42791277 2.81121839 -3.86172026 0 0 0 Z " fill="#7CC548" transform="translate(596,614)"/>
<path d="M0 0 C-1.32 1.32 -2.64 2.64 -4 4 C37.58 4 79.16 4 122 4 C122 4.33 122 4.66 122 5 C76.46 5 30.92 5 -16 5 C-12.98810728 2.99207152 -10.41778932 2.11601284 -7 1 C-6.278125 0.608125 -5.55625 0.21625 -4.8125 -0.1875 C-3 -1 -3 -1 0 0 Z " fill="#FBB121" transform="translate(461,674)"/>
<path d="M0 0 C1.81430151 0.06637233 3.628551 0.13418008 5.44274902 0.20332336 C7.31455073 0.22759522 9.18643551 0.24608836 11.05834961 0.25906372 C15.96626104 0.30851257 20.86910481 0.43601188 25.77502441 0.58021545 C30.78856843 0.71363222 35.80293845 0.77266461 40.81774902 0.83808899 C50.64288271 0.97717235 60.46426826 1.19878787 70.28649902 1.47285461 C70.28649902 1.80285461 70.28649902 2.13285461 70.28649902 2.47285461 C69.28504852 2.46983841 68.28359802 2.4668222 67.25180054 2.4637146 C57.80565147 2.43982159 48.36016849 2.4526686 38.91410637 2.50132084 C34.05787788 2.52515669 29.20233542 2.53612816 24.34606934 2.51753235 C19.65775413 2.50005575 14.97067036 2.51659048 10.28250504 2.55653191 C8.49560799 2.56581322 6.70860416 2.56291887 4.92174911 2.54754829 C-4.46220185 2.1178108 -4.46220185 2.1178108 -13.09840393 4.95033264 C-14.68878839 6.7456298 -15.69878986 8.30918399 -16.71350098 10.47285461 C-17.1021785 11.16803696 -17.49085602 11.8632193 -17.89131165 12.57946777 C-18.98331044 14.55172013 -19.94894806 16.55470657 -20.90100098 18.59785461 C-21.55932266 19.97633642 -22.21944044 21.35396208 -22.88146973 22.73066711 C-23.19221436 23.37721252 -23.50295898 24.02375793 -23.82312012 24.68989563 C-24.99397307 27.03449094 -26.32057801 29.25407294 -27.71350098 31.47285461 C-28.39992676 32.58080383 -28.39992676 32.58080383 -29.10021973 33.71113586 C-29.52947754 34.39562805 -29.95873535 35.08012024 -30.40100098 35.78535461 C-30.83799316 36.48273743 -31.27498535 37.18012024 -31.72521973 37.89863586 C-32.21441895 38.67787415 -32.21441895 38.67787415 -32.71350098 39.47285461 C-33.37350098 39.14285461 -34.03350098 38.81285461 -34.71350098 38.47285461 C-32.72004951 34.74015326 -30.71748475 31.01241054 -28.71350098 27.28535461 C-27.88398926 25.73171204 -27.88398926 25.73171204 -27.03771973 24.14668274 C-25.91984333 22.07154438 -24.77747964 20.0093808 -23.60913086 17.9622345 C-21.67179673 14.53880193 -21.67179673 14.53880193 -20.28295898 11.0370636 C-15.60393626 1.10883258 -10.45947475 -0.14261649 0 0 Z " fill="#4E9A89" transform="translate(441.7135009765625,560.5271453857422)"/>
<path d="M0 0 C3.14832066 2.73250472 5.05059053 6.19315664 7.125 9.75 C9.55442311 13.90796299 11.99293685 18.03186983 14.66015625 22.04296875 C15.08345215 22.69620117 15.50674805 23.34943359 15.94287109 24.02246094 C16.7530909 25.26909964 17.58210514 26.50378701 18.43212891 27.72363281 C20.02829508 30.22557943 21.07493291 32.2170803 20.78759766 35.21923828 C20.23828125 37.44140625 20.23828125 37.44140625 19 41 C18.34 41 17.68 41 17 41 C17 45.62 17 50.24 17 55 C17.66 55 18.32 55 19 55 C18.34 56.98 17.68 58.96 17 61 C16.67 61 16.34 61 16 61 C15.98541748 60.39639648 15.97083496 59.79279297 15.95581055 59.17089844 C15.41477592 39.11246971 12.00126347 22.55330013 1.74609375 5.08203125 C0 2 0 2 0 0 Z " fill="#F7E059" transform="translate(677,448)"/>
<path d="M0 0 C0 0.99 0 1.98 0 3 C-4.27518948 4.91526656 -8.5614495 6.80206412 -12.86010742 8.6640625 C-14.31917314 9.30067514 -15.77498481 9.94480259 -17.22729492 10.59667969 C-19.32170015 11.53517987 -21.42651629 12.44558051 -23.53515625 13.3515625 C-24.17711441 13.6462442 -24.81907257 13.9409259 -25.48048401 14.24453735 C-30.50038442 16.35267459 -33.11932807 15.87527789 -38 14 C-34.82021329 11.88014219 -31.5985877 10.56072504 -28.0625 9.1875 C-26.71454476 8.6570091 -25.36689252 8.12574768 -24.01953125 7.59375 C-23.34615723 7.32820312 -22.6727832 7.06265625 -21.97900391 6.7890625 C-18.0938831 5.23999879 -14.24377311 3.60700258 -10.390625 1.98046875 C-6.71417561 0.47264392 -3.95677919 -0.10693998 0 0 Z " fill="#6BBD53" transform="translate(569,626)"/>
<path d="M0 0 C4.92959122 -0.04942899 9.85903825 -0.08573318 14.78881836 -0.10986328 C16.46592725 -0.11992237 18.14301861 -0.13357122 19.82006836 -0.15087891 C22.23035002 -0.17513152 24.64039986 -0.1864839 27.05078125 -0.1953125 C28.17592888 -0.21079636 28.17592888 -0.21079636 29.32380676 -0.22659302 C33.10300779 -0.227408 34.77414399 -0.15057067 38 2 C40.32387947 2.39387788 42.65793749 2.73486085 45 3 C45 3.33 45 3.66 45 4 C40.96558604 4.02513051 36.93120375 4.04305855 32.89672852 4.05493164 C31.53050948 4.05989273 30.16429556 4.06666372 28.7980957 4.07543945 C7.87858687 4.20623447 7.87858687 4.20623447 2 3 C1.34 2.01 0.68 1.02 0 0 Z " fill="#8CD666" transform="translate(455,563)"/>
<path d="M0 0 C0.33 0.66 0.66 1.32 1 2 C-0.71187693 5.85172308 -2.83506584 9.39177639 -5 13 C-5.45375 13.928125 -5.9075 14.85625 -6.375 15.8125 C-8.00803214 19.01575534 -9.84566231 21.97049493 -11.81640625 24.97265625 C-13.08117609 27.02007999 -13.08117609 27.02007999 -13.9765625 29.484375 C-15.00775239 32.01905549 -16.23070176 33.96296581 -17.8125 36.1875 C-20.57765423 40.21749363 -22.71587966 44.36114804 -24.83203125 48.7578125 C-26.24284703 51.46620133 -27.95989518 53.73321686 -30 56 C-29.45058444 50.73828941 -26.80654879 46.63988818 -24.25 42.125 C-23.52659424 40.82997559 -23.52659424 40.82997559 -22.78857422 39.50878906 C-21.19917564 36.66865801 -19.59959318 33.83439994 -18 31 C-16.85117975 28.95073536 -15.70274721 26.90125332 -14.5546875 24.8515625 C-13.41207947 22.81735932 -12.26886303 20.78349774 -11.125 18.75 C-10.59036133 17.79883301 -10.05572266 16.84766602 -9.50488281 15.86767578 C-6.4642639 10.48994997 -3.3160128 5.21262529 0 0 Z " fill="#379897" transform="translate(407,600)"/>
<path d="M0 0 C0 0.66 0 1.32 0 2 C-2.7881022 3.5066972 -5.58103958 5.00419804 -8.375 6.5 C-9.1690625 6.92925781 -9.963125 7.35851562 -10.78125 7.80078125 C-11.54179688 8.20683594 -12.30234375 8.61289062 -13.0859375 9.03125 C-13.7876709 9.40830078 -14.4894043 9.78535156 -15.21240234 10.17382812 C-17 11 -17 11 -19 11 C-19 11.66 -19 12.32 -19 13 C-19.66 13 -20.32 13 -21 13 C-21 12.01 -21 11.02 -21 10 C-21.73605469 10.34933594 -22.47210937 10.69867187 -23.23046875 11.05859375 C-24.20628906 11.51363281 -25.18210937 11.96867188 -26.1875 12.4375 C-27.15042969 12.88996094 -28.11335937 13.34242188 -29.10546875 13.80859375 C-31.76631586 14.90381422 -34.16784755 15.54954796 -37 16 C-36.67 15.34 -36.34 14.68 -36 14 C-32.9375 13.375 -32.9375 13.375 -30 13 C-30 12.34 -30 11.68 -30 11 C-16.89320388 5 -16.89320388 5 -12 5 C-12 4.34 -12 3.68 -12 3 C-8.2080182 0.81231819 -4.37268114 0 0 0 Z " fill="#94CD45" transform="translate(617,604)"/>
<path d="M0 0 C0 3.6283842 -0.61488726 4.02683902 -3.03515625 6.58203125 C-3.68033203 7.26716797 -4.32550781 7.95230469 -4.99023438 8.65820312 C-5.67408203 9.36912109 -6.35792969 10.08003906 -7.0625 10.8125 C-7.71927734 11.51181641 -8.37605469 12.21113281 -9.05273438 12.93164062 C-13.1521503 17.24915355 -17.33732935 21.29198351 -22 25 C-22.66 25 -23.32 25 -24 25 C-22.12653414 17.67645164 -17.27331961 14.1010575 -11.5625 9.5 C-10.60859375 8.72785156 -9.6546875 7.95570313 -8.671875 7.16015625 C-7.79015625 6.44730469 -6.9084375 5.73445312 -6 5 C-3.99294758 3.34150057 -1.99573978 1.67210631 0 0 Z " fill="#B8DE4C" transform="translate(673,559)"/>
<path d="M0 0 C3.36740273 2.70198782 4.60439534 6.34533176 6.125 10.25 C6.38925781 10.89324219 6.65351562 11.53648437 6.92578125 12.19921875 C8.62232783 16.47933879 9.51365624 20.4212514 10 25 C9.34 24.34 8.68 23.68 8 23 C7.01 23 6.02 23 5 23 C4.49166409 21.75336669 3.99368855 20.50250613 3.5 19.25 C3.2215625 18.55390625 2.943125 17.8578125 2.65625 17.140625 C2 15 2 15 2 11 C1.34 11 0.68 11 0 11 C-0.38909985 9.54536519 -0.76088029 8.08608793 -1.125 6.625 C-1.33382812 5.81289063 -1.54265625 5.00078125 -1.7578125 4.1640625 C-1.83773437 3.44992187 -1.91765625 2.73578125 -2 2 C-1.34 1.34 -0.68 0.68 0 0 Z " fill="#7AC7EF" transform="translate(682,460)"/>
<path d="M0 0 C0.33 0 0.66 0 1 0 C2.58644515 15.30705187 1.59937938 29.56140546 -5.625 43.4375 C-5.94984375 44.07365234 -6.2746875 44.70980469 -6.609375 45.36523438 C-7.40071353 46.91299944 -8.1995667 48.4569187 -9 50 C-9.66 50 -10.32 50 -11 50 C-9.8716939 47.16296109 -8.72581316 44.33464987 -7.5625 41.51171875 C-7.04156994 40.23701869 -6.52073856 38.9622783 -6 37.6875 C-5.60941406 36.74874023 -5.60941406 36.74874023 -5.2109375 35.79101562 C-1.76914051 27.31689424 -0.66150527 19.59654233 -0.375 10.5 C-0.31699219 8.98019531 -0.31699219 8.98019531 -0.2578125 7.4296875 C-0.16436381 4.95329716 -0.07860127 2.47689849 0 0 Z " fill="#225BD9" transform="translate(762,592)"/>
<path d="M0 0 C2.78095904 4.17143856 2.33070347 7.59962668 2.3125 12.5 C2.32861328 13.36753906 2.34472656 14.23507812 2.36132812 15.12890625 C2.36197266 15.96292969 2.36261719 16.79695313 2.36328125 17.65625 C2.36775269 18.79803711 2.36775269 18.79803711 2.37231445 19.96289062 C2 22 2 22 -1 25 C-1.66 17.08 -2.32 9.16 -3 1 C-2.01 0.67 -1.02 0.34 0 0 Z " fill="#62C5F9" transform="translate(690,482)"/>
<path d="M0 0 C2.71633087 0.60362908 4.49534479 1.30032549 6.15234375 3.59765625 C10.46601362 11.78549 11.33212049 20.17659501 11.25 29.3125 C11.25773438 30.19228516 11.26546875 31.07207031 11.2734375 31.97851562 C11.27085937 32.82736328 11.26828125 33.67621094 11.265625 34.55078125 C11.26336914 35.31044189 11.26111328 36.07010254 11.25878906 36.8527832 C10.96819177 39.26391825 10.19730482 40.90352758 9 43 C8.61866701 41.0085944 8.28674418 39.00720923 8 37 C8.495 36.505 8.495 36.505 9 36 C9.07271741 33.64686445 9.08370868 31.29166332 9.0625 28.9375 C9.05347656 27.64714844 9.04445313 26.35679687 9.03515625 25.02734375 C9.02355469 24.02832031 9.01195312 23.02929688 9 22 C8.67 22 8.34 22 8 22 C7.83564453 20.91332031 7.83564453 20.91332031 7.66796875 19.8046875 C6.76871183 14.32141361 5.70310061 9.91472839 3 5 C3 4.01 3 3.02 3 2 C2.01 1.67 1.02 1.34 0 1 C0 0.67 0 0.34 0 0 Z " fill="#EFE076" transform="translate(751,575)"/>
<path d="M0 0 C0.66 0 1.32 0 2 0 C3.76171875 2.5546875 3.76171875 2.5546875 5.6875 5.875 C6.33074219 6.96554687 6.97398437 8.05609375 7.63671875 9.1796875 C8.08660156 10.11039062 8.53648437 11.04109375 9 12 C8.67 12.66 8.34 13.32 8 14 C7.67 14 7.34 14 7 14 C7 16.31 7 18.62 7 21 C6.34 20.67 5.68 20.34 5 20 C4.40644386 17.35139573 4.25790731 14.70802678 4 12 C3.34 12 2.68 12 2 12 C1.34 10.35 0.68 8.7 0 7 C-0.33 7 -0.66 7 -1 7 C-1.04254356 5.00045254 -1.04080783 2.99958364 -1 1 C-0.67 0.67 -0.34 0.34 0 0 Z " fill="#4299F5" transform="translate(484,282)"/>
<path d="M0 0 C0.33 0 0.66 0 1 0 C1.23268915 6.28260706 0.40454548 11.88019467 -1 18 C-1.66 18 -2.32 18 -3 18 C-3.33 18.99 -3.66 19.98 -4 21 C-5.32 20.67 -6.64 20.34 -8 20 C-5.33333333 13.33333333 -2.66666667 6.66666667 0 0 Z " fill="#C6ED75" transform="translate(692,506)"/>
<path d="M0 0 C0.66 0 1.32 0 2 0 C3.76062164 3.32561865 4.10784228 4.59173995 3.125 8.3125 C2.75375 9.199375 2.3825 10.08625 2 11 C1.34 11 0.68 11 0 11 C0 15.62 0 20.24 0 25 C0.66 25 1.32 25 2 25 C1.34 26.98 0.68 28.96 0 31 C-0.33 31 -0.66 31 -1 31 C-1.2258868 26.58404696 -1.42767834 22.16731435 -1.625 17.75 C-1.68945312 16.49574219 -1.75390625 15.24148438 -1.8203125 13.94921875 C-1.871875 12.74394531 -1.9234375 11.53867187 -1.9765625 10.296875 C-2.02893066 9.18666992 -2.08129883 8.07646484 -2.13525391 6.93261719 C-2.00051254 4.01111303 -1.52929484 2.45313506 0 0 Z " fill="#F9E260" transform="translate(694,478)"/>
<path d="M0 0 C0 0.99 0 1.98 0 3 C-2.07772471 3.86772029 -4.16243177 4.71873619 -6.25 5.5625 C-7.99023438 6.27599609 -7.99023438 6.27599609 -9.765625 7.00390625 C-12.94190717 7.98210909 -14.01762846 8.20746458 -17 7 C-17.99 6.67 -18.98 6.34 -20 6 C-18.06305322 5.18618205 -16.12542289 4.37399084 -14.1875 3.5625 C-13.10855469 3.11003906 -12.02960937 2.65757812 -10.91796875 2.19140625 C-7.0245625 0.601729 -4.18789342 -0.11318631 0 0 Z " fill="#71C24C" transform="translate(569,626)"/>
<path d="M0 0 C0 1.32 0 2.64 0 4 C-5.57765673 6.94033413 -10.85326729 9.53012914 -17 11 C-16.505 10.566875 -16.01 10.13375 -15.5 9.6875 C-13.66781808 8.00259517 -13.66781808 8.00259517 -14 5 C-12.04350603 4.16235732 -10.08474444 3.33000941 -8.125 2.5 C-7.03445313 2.0359375 -5.94390625 1.571875 -4.8203125 1.09375 C-2 0 -2 0 0 0 Z " fill="#9CB540" transform="translate(596,614)"/>
<path d="M0 0 C-5.24537237 2.73196477 -10.58651614 5.18656814 -16 7.5625 C-16.66386719 7.85519775 -17.32773437 8.14789551 -18.01171875 8.44946289 C-31.0395529 14.12994411 -31.0395529 14.12994411 -38 15 C-35.44068488 12.44068488 -32.95851872 11.61535489 -29.6015625 10.25 C-28.97019379 9.9912207 -28.33882507 9.73244141 -27.68832397 9.46582031 C-25.66911841 8.63912866 -23.64722478 7.81927509 -21.625 7 C-19.61042694 6.17953334 -17.59645209 5.35763633 -15.58309937 4.53417969 C-13.75134338 3.78566575 -11.91794731 3.04116917 -10.08447266 2.296875 C-7.09639216 1.10557263 -7.09639216 1.10557263 -4.77099609 -0.234375 C-3 -1 -3 -1 0 0 Z " fill="#B7902A" transform="translate(576,627)"/>
<path d="M0 0 C0.66 0.66 1.32 1.32 2 2 C-2.0480028 5.70068895 -5.827419 8.95502612 -11 11 C-11.66 10.67 -12.32 10.34 -13 10 C-11.35 9.34 -9.7 8.68 -8 8 C-8 7.34 -8 6.68 -8 6 C-9.98 6.33 -11.96 6.66 -14 7 C-11.33440687 5.22293791 -8.9719385 4.12451727 -6 3 C-6 2.34 -6 1.68 -6 1 C-3.125 0.375 -3.125 0.375 0 0 Z " fill="#AAC640" transform="translate(625,598)"/>
<path d="M0 0 C-1.32 1.32 -2.64 2.64 -4 4 C3.26 4 10.52 4 18 4 C18 4.33 18 4.66 18 5 C6.78 5 -4.44 5 -16 5 C-12.98810728 2.99207152 -10.41778932 2.11601284 -7 1 C-6.278125 0.608125 -5.55625 0.21625 -4.8125 -0.1875 C-3 -1 -3 -1 0 0 Z " fill="#EF961A" transform="translate(461,674)"/>
<path d="M0 0 C0.99 0.33 1.98 0.66 3 1 C3 1.66 3 2.32 3 3 C0.515625 4.76171875 0.515625 4.76171875 -2.75 6.6875 C-3.81734375 7.33074219 -4.8846875 7.97398437 -5.984375 8.63671875 C-9 10 -9 10 -11.390625 9.70703125 C-11.92171875 9.47371094 -12.4528125 9.24039063 -13 9 C-13 8.34 -13 7.68 -13 7 C-9.04859514 4.6756442 -5.28935875 2.64004894 -1 1 C-0.67 0.67 -0.34 0.34 0 0 Z " fill="#A3D747" transform="translate(636,590)"/>
<path d="M0 0 C5.45769811 -0.11138159 10.61509359 0.08342019 16 1 C16.33 1.99 16.66 2.98 17 4 C12.05 4 7.1 4 2 4 C2 3.34 2 2.68 2 2 C1.34 1.34 0.68 0.68 0 0 Z " fill="#A7E16A" transform="translate(503,563)"/>
<path d="M0 0 C0.66 0.33 1.32 0.66 2 1 C1.27554687 1.42410156 0.55109375 1.84820313 -0.1953125 2.28515625 C-10.15455179 8.3073421 -10.15455179 8.3073421 -16 18 C-16.99 18 -17.98 18 -19 18 C-16.14809105 9.18500869 -10.33532893 5.68919843 -2.64453125 1.22265625 C-1.77183594 0.81917969 -0.89914062 0.41570313 0 0 Z " fill="#2144A6" transform="translate(448,544)"/>
<path d="M0 0 C0 0.66 0 1.32 0 2 C-8.39367931 5.76751785 -15.81593848 8.11939881 -25 6 C-25 5.67 -25 5.34 -25 5 C-23.26363281 4.70996094 -23.26363281 4.70996094 -21.4921875 4.4140625 C-19.95308283 4.15128853 -18.41402266 3.88825388 -16.875 3.625 C-16.11445312 3.49867188 -15.35390625 3.37234375 -14.5703125 3.2421875 C-9.79036093 2.41805792 -4.72977697 0 0 0 Z " fill="#3056B1" transform="translate(714,674)"/>
<path d="M0 0 C0.33 0.66 0.66 1.32 1 2 C-0.71187693 5.85172308 -2.83506584 9.39177639 -5 13 C-5.495 14.03125 -5.99 15.0625 -6.5 16.125 C-7.81084792 18.63745852 -8.87729179 20.18053582 -11 22 C-10.44033792 16.92306543 -8.01598406 13.08091993 -5.5 8.75 C-5.08363281 8.0178125 -4.66726563 7.285625 -4.23828125 6.53125 C-1.17106331 1.17106331 -1.17106331 1.17106331 0 0 Z " fill="#33948D" transform="translate(407,600)"/>
<path d="M0 0 C0 3 0 3 -1.21484375 4.61328125 C-5.75776585 9.09439488 -10.57787065 12.64344374 -16 16 C-16.66 15.67 -17.32 15.34 -18 15 C-14.25 12 -14.25 12 -12 12 C-11.814375 11.443125 -11.62875 10.88625 -11.4375 10.3125 C-9.6501161 7.43714328 -7.55027255 6.0881925 -4.75390625 4.24609375 C-2.96606422 2.97588972 -1.5061463 1.58905343 0 0 Z " fill="#3696EF" transform="translate(678,533)"/>
<path d="M0 0 C0.680625 0.391875 1.36125 0.78375 2.0625 1.1875 C-0.79870775 3.09497183 -3.29004993 4.19103706 -6.5 5.375 C-7.47066406 5.73980469 -8.44132812 6.10460937 -9.44140625 6.48046875 C-11.9375 7.1875 -11.9375 7.1875 -13.9375 6.1875 C-12.6175 5.5275 -11.2975 4.8675 -9.9375 4.1875 C-9.9375 3.5275 -9.9375 2.8675 -9.9375 2.1875 C-3.66057692 -1.0125 -3.66057692 -1.0125 0 0 Z " fill="#39A491" transform="translate(360.9375,709.8125)"/>
<path d="M0 0 C-0.33 0.66 -0.66 1.32 -1 2 C-1.61875 2.144375 -2.2375 2.28875 -2.875 2.4375 C-5.05424112 2.82387341 -5.05424112 2.82387341 -6.375 4.375 C-8.64851613 6.64851613 -11.0488566 7.77035692 -14 9 C-14.99 8.67 -15.98 8.34 -17 8 C-15.02 7.34 -13.04 6.68 -11 6 C-11 4.68 -11 3.36 -11 2 C-9.73392393 1.46770674 -8.46189588 0.94955456 -7.1875 0.4375 C-6.47980469 0.14746094 -5.77210938 -0.14257812 -5.04296875 -0.44140625 C-3 -1 -3 -1 0 0 Z " fill="#4FB26C" transform="translate(453,673)"/>
<path d="M0 0 C0 3.59750977 -0.59061847 4.03864076 -2.9375 6.625 C-3.5665625 7.31851563 -4.195625 8.01203125 -4.84375 8.7265625 C-8.48363892 12.56427147 -12.22176336 16.29887023 -16 20 C-16.66 19.34 -17.32 18.68 -18 18 C-17.20335937 17.28714844 -16.40671875 16.57429687 -15.5859375 15.83984375 C-10.01718042 10.81936537 -4.6970075 5.87125937 0 0 Z " fill="#E9B93D" transform="translate(671,563)"/>
<path d="M0 0 C8.58077055 -0.24911914 16.58173087 0.30117812 25 2 C25 2.33 25 2.66 25 3 C19.72 3 14.44 3 9 3 C9 2.34 9 1.68 9 1 C6.03 1 3.06 1 0 1 C0 0.67 0 0.34 0 0 Z " fill="#52BB64" transform="translate(429,563)"/>
<path d="M0 0 C0.33 0 0.66 0 1 0 C1.08166849 3.00056084 1.14081551 5.9988539 1.1875 9 C1.22520508 10.25876953 1.22520508 10.25876953 1.26367188 11.54296875 C1.33182365 17.40402129 0.36728835 21.63166106 -2 27 C-2.33 27 -2.66 27 -3 27 C-3.25 20.375 -3.25 20.375 -1 17 C-0.6373883 15.07255631 -0.6373883 15.07255631 -0.5859375 12.98828125 C-0.54726563 12.23095703 -0.50859375 11.47363281 -0.46875 10.69335938 C-0.4378125 9.90767578 -0.406875 9.12199219 -0.375 8.3125 C-0.33632813 7.51521484 -0.29765625 6.71792969 -0.2578125 5.89648438 C-0.16367506 3.93136525 -0.08075368 1.9657146 0 0 Z " fill="#76CFE8" transform="translate(692,487)"/>
<path d="M0 0 C0.33 0 0.66 0 1 0 C2.30033449 4.98288175 2.18381468 9.95095958 2.1875 15.0625 C2.19974609 15.96033203 2.21199219 16.85816406 2.22460938 17.78320312 C2.22654297 18.65009766 2.22847656 19.51699219 2.23046875 20.41015625 C2.23457764 21.19527588 2.23868652 21.98039551 2.24291992 22.78930664 C1.97310575 25.24475115 1.22414635 26.87222319 0 29 C-0.38133299 27.0085944 -0.71325582 25.00720923 -1 23 C-0.67 22.67 -0.34 22.34 0 22 C0.09956009 19.7101179 0.1296872 17.41704063 0.125 15.125 C0.12757813 13.86945312 0.13015625 12.61390625 0.1328125 11.3203125 C0.15407077 7.99878218 0.15407077 7.99878218 -1 5 C-0.5625 2.3125 -0.5625 2.3125 0 0 Z " fill="#D6C67D" transform="translate(760,589)"/>
<path d="M0 0 C-4.69978858 4.82029598 -4.69978858 4.82029598 -8.40234375 5.33203125 C-10.62065332 5.31450906 -12.79311543 5.22068846 -15 5 C-12.76504572 2.76504572 -10.97585464 1.9975209 -8.0625 0.8125 C-7.18722656 0.44769531 -6.31195313 0.08289063 -5.41015625 -0.29296875 C-3 -1 -3 -1 0 0 Z " fill="#B7872C" transform="translate(476,668)"/>
<path d="M0 0 C0.33 0.66 0.66 1.32 1 2 C1.66 2.33 2.32 2.66 3 3 C2.608125 3.61875 2.21625 4.2375 1.8125 4.875 C-0.66594973 9.14818919 -2.82253745 13.56761575 -5 18 C-5.66 18 -6.32 18 -7 18 C-6.72414063 17.31550781 -6.44828125 16.63101563 -6.1640625 15.92578125 C-4.87623368 12.68892291 -3.62335037 9.43978124 -2.375 6.1875 C-1.92898438 5.02605469 -1.48296875 3.86460937 -1.0234375 2.66796875 C-0.68570313 1.78753906 -0.34796875 0.90710938 0 0 Z " fill="#2F60C7" transform="translate(758,624)"/>
<path d="M0 0 C3.08539112 2.72412697 5.11188908 6.09188781 7.25 9.5625 C7.81460938 10.44711914 7.81460938 10.44711914 8.390625 11.34960938 C9.3260331 12.86105004 10.17093646 14.42771031 11 16 C10.67 16.66 10.34 17.32 10 18 C6.87084199 15.3137382 5.2357324 12.04608071 3.3125 8.4375 C2.68988281 7.28121094 2.06726563 6.12492187 1.42578125 4.93359375 C0 2 0 2 0 0 Z " fill="#C7BF8A" transform="translate(677,448)"/>
<path d="M0 0 C2.94850541 3.54343666 5.45497056 7.16435054 7.8125 11.125 C8.43769531 12.15882813 9.06289063 13.19265625 9.70703125 14.2578125 C11 17 11 17 10 20 C8.32265277 17.23549979 6.66002366 14.46243144 5 11.6875 C4.52304687 10.90181641 4.04609375 10.11613281 3.5546875 9.30664062 C2.87792969 8.1706543 2.87792969 8.1706543 2.1875 7.01171875 C1.76855469 6.31522217 1.34960938 5.61872559 0.91796875 4.90112305 C0 3 0 3 0 0 Z " fill="#336EDD" transform="translate(737,544)"/>
<path d="M0 0 C-1.75 2 -1.75 2 -4 4 C-5.32 4 -6.64 4 -8 4 C-9.59092035 4.2950051 -11.17497145 4.62940505 -12.75 5 C-13.54921875 5.185625 -14.3484375 5.37125 -15.171875 5.5625 C-16.07679688 5.7790625 -16.07679688 5.7790625 -17 6 C-14.1237651 3.6776572 -11.36219578 2.13434158 -7.9375 0.75 C-7.08027344 0.39421875 -6.22304688 0.0384375 -5.33984375 -0.328125 C-3 -1 -3 -1 0 0 Z " fill="#B6882D" transform="translate(516,652)"/>
<path d="M0 0 C0.66 0 1.32 0 2 0 C1.34 3.3 0.68 6.6 0 10 C-1.32 10 -2.64 10 -4 10 C-3.29445932 6.33118845 -1.72264494 3.29549466 0 0 Z " fill="#319D9A" transform="translate(347,708)"/>
<path d="M0 0 C2.59778161 3.097355 4.99572953 6.31455642 7.3125 9.625 C8.11107422 10.75808594 8.11107422 10.75808594 8.92578125 11.9140625 C9.28027344 12.60242188 9.63476562 13.29078125 10 14 C9.67 14.99 9.34 15.98 9 17 C0 3.63106796 0 3.63106796 0 0 Z " fill="#346ED9" transform="translate(726,526)"/>
<path d="M0 0 C2.74172892 2.74172892 4.04915895 4.66582038 5.75 8.0625 C6.19859375 8.94035156 6.6471875 9.81820312 7.109375 10.72265625 C7.40328125 11.47417969 7.6971875 12.22570312 8 13 C7.67 13.66 7.34 14.32 7 15 C4 11.25 4 11.25 4 9 C3.01 9 2.02 9 1 9 C0.67 6.03 0.34 3.06 0 0 Z " fill="#295FD4" transform="translate(260,665)"/>
<path d="M0 0 C0.33 0 0.66 0 1 0 C1.40368295 6.45892714 0.5915262 11.06108578 -2 17 C-2.66 16.34 -3.32 15.68 -4 15 C-3.48616214 12.37174888 -2.8843344 9.93126859 -2.125 7.375 C-1.92519531 6.66859375 -1.72539063 5.9621875 -1.51953125 5.234375 C-1.0235315 3.48656637 -0.5131058 1.74286351 0 0 Z " fill="#F2D863" transform="translate(759,613)"/>
<path d="M0 0 C0.66 0 1.32 0 2 0 C0.65070536 3.83663072 -1.07751025 6.65172569 -3.625 9.8125 C-4.25664063 10.60269531 -4.88828125 11.39289062 -5.5390625 12.20703125 C-6.02117188 12.79871094 -6.50328125 13.39039063 -7 14 C-7.33 13.01 -7.66 12.02 -8 11 C-6.6015625 8.80859375 -6.6015625 8.80859375 -4.625 6.4375 C-2.0525231 3.38757937 -2.0525231 3.38757937 0 0 Z " fill="#2053C5" transform="translate(750,642)"/>
<path d="M0 0 C-2.26118038 2.74415095 -3.47594492 3.89410286 -7.015625 4.609375 C-8.08296875 4.65578125 -9.1503125 4.7021875 -10.25 4.75 C-11.86648438 4.83507812 -11.86648438 4.83507812 -13.515625 4.921875 C-14.33546875 4.94765625 -15.1553125 4.9734375 -16 5 C-12.98810728 2.99207152 -10.41778932 2.11601284 -7 1 C-6.278125 0.608125 -5.55625 0.21625 -4.8125 -0.1875 C-3 -1 -3 -1 0 0 Z " fill="#BF932E" transform="translate(461,674)"/>
<path d="M0 0 C4.14277059 4.83323235 6.36937261 8.53597935 6 15 C3.75848118 12.75848118 3.03698675 10.9932888 1.875 8.0625 C1.52179687 7.18722656 1.16859375 6.31195312 0.8046875 5.41015625 C0 3 0 3 0 0 Z " fill="#2867DC" transform="translate(756,576)"/>
<path d="M0 0 C1.53445094 3.06890187 0.54984289 5.70094266 0 9 C-0.66 9 -1.32 9 -2 9 C-2.33 9.99 -2.66 10.98 -3 12 C-3.66 12 -4.32 12 -5 12 C-3.68938409 7.76570244 -2.05643741 3.92592596 0 0 Z " fill="#ABED91" transform="translate(691,510)"/>
<path d="M0 0 C0.33 0.66 0.66 1.32 1 2 C0.22265625 3.9453125 0.22265625 3.9453125 -0.9375 6.125 C-1.31777344 6.84945313 -1.69804687 7.57390625 -2.08984375 8.3203125 C-2.39019531 8.87460937 -2.69054687 9.42890625 -3 10 C-2.01 10.33 -1.02 10.66 0 11 C-1.98 11.33 -3.96 11.66 -6 12 C-4.68139111 7.38486888 -2.78644563 3.90102388 0 0 Z " fill="#1643AD" transform="translate(503,424)"/>
<path d="M0 0 C0.66 0 1.32 0 2 0 C2.96070434 2.88211302 3.10581883 4.69850044 3.0625 7.6875 C3.05347656 8.49574219 3.04445313 9.30398438 3.03515625 10.13671875 C3.02355469 10.75160156 3.01195312 11.36648438 3 12 C0.29407743 9.29407743 -0.95479203 7.75346617 -1.1875 3.875 C-1 1 -1 1 0 0 Z " fill="#50A5F7" transform="translate(484,282)"/>
<path d="M0 0 C0.66 0.66 1.32 1.32 2 2 C-0.31 5.3 -2.62 8.6 -5 12 C-5.33 11.01 -5.66 10.02 -6 9 C-5.67 8.34 -5.34 7.68 -5 7 C-4.34 7 -3.68 7 -3 7 C-2.690625 6.030625 -2.38125 5.06125 -2.0625 4.0625 C-1 1 -1 1 0 0 Z " fill="#E9CD67" transform="translate(749,640)"/>
<path d="M0 0 C3.67230705 3.07999946 4.56802365 5.2482602 5 10 C4.34 9.67 3.68 9.34 3 9 C3 8.34 3 7.68 3 7 C2.34 7 1.68 7 1 7 C0.67 7.66 0.34 8.32 0 9 C0 6.03 0 3.06 0 0 Z " fill="#F4E470" transform="translate(702,490)"/>
<path d="M0 0 C2.97 0 5.94 0 9 0 C9 0.99 9 1.98 9 3 C5.625 3.1875 5.625 3.1875 2 3 C1.34 2.01 0.68 1.02 0 0 Z " fill="#77CF63" transform="translate(455,563)"/>
<path d="M0 0 C2.12438339 -0.08078641 4.2496323 -0.13909141 6.375 -0.1875 C7.55835938 -0.22230469 8.74171875 -0.25710938 9.9609375 -0.29296875 C11.46527344 -0.14794922 11.46527344 -0.14794922 13 0 C13.66 0.99 14.32 1.98 15 3 C7.575 2.01 7.575 2.01 0 1 C0 0.67 0 0.34 0 0 Z " fill="#66C85F" transform="translate(442,563)"/>
<path d="M0 0 C0.66 0.33 1.32 0.66 2 1 C-1.53836669 3.46862792 -4.83845842 5.76278494 -9 7 C-9.99 6.67 -10.98 6.34 -12 6 C-10.04669132 4.96958487 -8.08718472 3.9509107 -6.125 2.9375 C-5.03445313 2.36902344 -3.94390625 1.80054688 -2.8203125 1.21484375 C-1.42425781 0.61349609 -1.42425781 0.61349609 0 0 Z " fill="#C99B2B" transform="translate(610,609)"/>
<path d="M0 0 C0.33 0 0.66 0 1 0 C1 2.97 1 5.94 1 9 C1.66 9 2.32 9 3 9 C2.34 10.98 1.68 12.96 1 15 C0.67 15 0.34 15 0 15 C0 10.05 0 5.1 0 0 Z " fill="#E9D764" transform="translate(693,494)"/>
<path d="M0 0 C3 0 3 0 5 1 C1.535 3.97 1.535 3.97 -2 7 C-1.125 1.125 -1.125 1.125 0 0 Z " fill="#358FF8" transform="translate(323,524)"/>
<path d="M0 0 C0.66 0.33 1.32 0.66 2 1 C0.35 2.65 -1.3 4.3 -3 6 C-3.99 5.34 -4.98 4.68 -6 4 C-4.02 2.68 -2.04 1.36 0 0 Z M-5 6 C-3 7 -3 7 -3 7 Z " fill="#C2ED82" transform="translate(665,546)"/>
<path d="M0 0 C2.25245881 2.68841859 3.88213958 4.64641875 5 8 C4.01 8 3.02 8 2 8 C0.23537317 4.91190305 0 3.76687864 0 0 Z " fill="#E9DD89" transform="translate(714,509)"/>
<path d="M0 0 C0.66 0 1.32 0 2 0 C5.11450382 4.15267176 5.11450382 4.15267176 4.6875 7.3125 C4.460625 7.869375 4.23375 8.42625 4 9 C0 2.25 0 2.25 0 0 Z " fill="#3674D8" transform="translate(703,489)"/>
<path d="M0 0 C3 1 3 1 4.6875 4.0625 C5.120625 5.031875 5.55375 6.00125 6 7 C5.34 7 4.68 7 4 7 C3.34 6.34 2.68 5.68 2 5 C1.34 4.67 0.68 4.34 0 4 C0 2.68 0 1.36 0 0 Z " fill="#E5D57A" transform="translate(686,465)"/>
</svg>
